<mxfile host="app.diagrams.net" modified="2022-02-13T12:58:11.726Z" agent="5.0 (X11; Linux x86_64) AppleWebKit/537.36 (KHTML, like Gecko) Chrome/96.0.4664.113 Safari/537.36" etag="9n_pWl_eg2-oWx43_DOj" version="16.5.6" type="github" pages="5">
  <diagram id="uCZnZtuWUNx1saeJuhkZ" name="Summary">
    <mxGraphModel dx="3405" dy="2077" grid="1" gridSize="10" guides="1" tooltips="1" connect="1" arrows="1" fold="1" page="1" pageScale="1" pageWidth="1700" pageHeight="1100" math="0" shadow="0">
      <root>
        <mxCell id="0" />
        <mxCell id="1" parent="0" />
        <mxCell id="RLlMxuBGRBKn2Z-enF3S-37" value="" style="group;fontFamily=Comfortaa;fontSource=https%3A%2F%2Ffonts.googleapis.com%2Fcss%3Ffamily%3DComfortaa;" parent="1" vertex="1" connectable="0">
          <mxGeometry x="1325" y="120" width="1150" height="520" as="geometry" />
        </mxCell>
        <mxCell id="RLlMxuBGRBKn2Z-enF3S-35" value="" style="rounded=0;whiteSpace=wrap;html=1;fontFamily=Comfortaa;fontSource=https%3A%2F%2Ffonts.googleapis.com%2Fcss%3Ffamily%3DComfortaa;fontSize=70;fontColor=#000000;fillColor=#F5F5F5;opacity=90;" parent="RLlMxuBGRBKn2Z-enF3S-37" vertex="1">
          <mxGeometry width="1150" height="520" as="geometry" />
        </mxCell>
        <mxCell id="RLlMxuBGRBKn2Z-enF3S-3" value="" style="shape=image;imageAspect=0;aspect=fixed;verticalLabelPosition=bottom;verticalAlign=top;image=https://play-lh.googleusercontent.com/PCpXdqvUWfCW1mXhH1Y_98yBpgsWxuTSTofy3NGMo9yBTATDyzVkqU580bfSln50bFU;fontFamily=Comfortaa;fontSource=https%3A%2F%2Ffonts.googleapis.com%2Fcss%3Ffamily%3DComfortaa;" parent="RLlMxuBGRBKn2Z-enF3S-37" vertex="1">
          <mxGeometry x="45" y="135" width="190" height="190" as="geometry" />
        </mxCell>
        <mxCell id="RLlMxuBGRBKn2Z-enF3S-36" value="" style="group;fontFamily=Comfortaa;fontSource=https%3A%2F%2Ffonts.googleapis.com%2Fcss%3Ffamily%3DComfortaa;" parent="RLlMxuBGRBKn2Z-enF3S-37" vertex="1" connectable="0">
          <mxGeometry x="255" y="130" width="880" height="210" as="geometry" />
        </mxCell>
        <mxCell id="RLlMxuBGRBKn2Z-enF3S-31" value="" style="rounded=1;whiteSpace=wrap;html=1;fontFamily=Comfortaa;fontSource=https%3A%2F%2Ffonts.googleapis.com%2Fcss%3Ffamily%3DComfortaa;fontColor=#FFFFFF;fillColor=#FFFFFF;opacity=90;" parent="RLlMxuBGRBKn2Z-enF3S-36" vertex="1">
          <mxGeometry width="880" height="210" as="geometry" />
        </mxCell>
        <mxCell id="RLlMxuBGRBKn2Z-enF3S-15" value="Github Intro" style="rounded=1;whiteSpace=wrap;html=1;fontFamily=Comfortaa;fillColor=#1dad9b;fontColor=#FFFFFF;strokeColor=none;fontStyle=1;opacity=90;fontSource=https%3A%2F%2Ffonts.googleapis.com%2Fcss%3Ffamily%3DComfortaa;" parent="RLlMxuBGRBKn2Z-enF3S-36" vertex="1">
          <mxGeometry x="150" y="130" width="80" height="40" as="geometry" />
        </mxCell>
        <mxCell id="RLlMxuBGRBKn2Z-enF3S-16" value="Fetching &amp;amp; Pulling" style="rounded=1;whiteSpace=wrap;html=1;fontFamily=Comfortaa;fillColor=#1dad9b;fontColor=#FFFFFF;strokeColor=none;fontStyle=1;opacity=90;fontSource=https%3A%2F%2Ffonts.googleapis.com%2Fcss%3Ffamily%3DComfortaa;" parent="RLlMxuBGRBKn2Z-enF3S-36" vertex="1">
          <mxGeometry x="300" y="130" width="80" height="40" as="geometry" />
        </mxCell>
        <mxCell id="RLlMxuBGRBKn2Z-enF3S-17" value="Github Odds &amp;amp; Ends" style="rounded=1;whiteSpace=wrap;html=1;fontFamily=Comfortaa;fillColor=#1dad9b;fontColor=#FFFFFF;strokeColor=none;fontStyle=1;opacity=90;fontSource=https%3A%2F%2Ffonts.googleapis.com%2Fcss%3Ffamily%3DComfortaa;" parent="RLlMxuBGRBKn2Z-enF3S-36" vertex="1">
          <mxGeometry x="440" y="130" width="90" height="40" as="geometry" />
        </mxCell>
        <mxCell id="RLlMxuBGRBKn2Z-enF3S-18" value="Collaborative Workflows" style="rounded=1;whiteSpace=wrap;html=1;fontFamily=Comfortaa;fillColor=#1dad9b;fontColor=#FFFFFF;strokeColor=none;fontStyle=1;opacity=90;fontSource=https%3A%2F%2Ffonts.googleapis.com%2Fcss%3Ffamily%3DComfortaa;" parent="RLlMxuBGRBKn2Z-enF3S-36" vertex="1">
          <mxGeometry x="595" y="130" width="90" height="40" as="geometry" />
        </mxCell>
        <mxCell id="RLlMxuBGRBKn2Z-enF3S-34" value="Github/ Collab Core" style="text;html=1;strokeColor=none;fillColor=none;align=center;verticalAlign=middle;whiteSpace=wrap;rounded=0;fontFamily=Comfortaa;fontSource=https%3A%2F%2Ffonts.googleapis.com%2Fcss%3Ffamily%3DComfortaa;fontColor=#000000;opacity=90;fontSize=70;fontStyle=1" parent="RLlMxuBGRBKn2Z-enF3S-36" vertex="1">
          <mxGeometry x="65" y="50" width="770" height="40" as="geometry" />
        </mxCell>
        <mxCell id="RLlMxuBGRBKn2Z-enF3S-43" value="" style="group;fontFamily=Comfortaa;fontSource=https%3A%2F%2Ffonts.googleapis.com%2Fcss%3Ffamily%3DComfortaa;" parent="1" vertex="1" connectable="0">
          <mxGeometry x="-30" y="-10" width="1210" height="790" as="geometry" />
        </mxCell>
        <mxCell id="RLlMxuBGRBKn2Z-enF3S-33" value="" style="rounded=0;whiteSpace=wrap;html=1;fontFamily=Comfortaa;fontSource=https%3A%2F%2Ffonts.googleapis.com%2Fcss%3Ffamily%3DComfortaa;fontSize=70;fontColor=#000000;fillColor=#F5F5F5;opacity=90;" parent="RLlMxuBGRBKn2Z-enF3S-43" vertex="1">
          <mxGeometry width="1210" height="790" as="geometry" />
        </mxCell>
        <mxCell id="RLlMxuBGRBKn2Z-enF3S-4" value="" style="shape=image;imageAspect=0;aspect=fixed;verticalLabelPosition=bottom;verticalAlign=top;image=https://avatars.githubusercontent.com/u/18133?s=200&amp;v=4;fontFamily=Comfortaa;fontSource=https%3A%2F%2Ffonts.googleapis.com%2Fcss%3Ffamily%3DComfortaa;" parent="RLlMxuBGRBKn2Z-enF3S-43" vertex="1">
          <mxGeometry x="30" y="280" width="200" height="200" as="geometry" />
        </mxCell>
        <mxCell id="RLlMxuBGRBKn2Z-enF3S-40" value="" style="group;fontFamily=Comfortaa;fontSource=https%3A%2F%2Ffonts.googleapis.com%2Fcss%3Ffamily%3DComfortaa;" parent="RLlMxuBGRBKn2Z-enF3S-43" vertex="1" connectable="0">
          <mxGeometry x="275" y="280" width="880" height="210" as="geometry" />
        </mxCell>
        <mxCell id="RLlMxuBGRBKn2Z-enF3S-29" value="" style="rounded=1;whiteSpace=wrap;html=1;fontFamily=Comfortaa;fontSource=https%3A%2F%2Ffonts.googleapis.com%2Fcss%3Ffamily%3DComfortaa;fontColor=#FFFFFF;fillColor=#FFFFFF;opacity=90;" parent="RLlMxuBGRBKn2Z-enF3S-40" vertex="1">
          <mxGeometry width="880" height="210" as="geometry" />
        </mxCell>
        <mxCell id="RLlMxuBGRBKn2Z-enF3S-11" value="Diffing" style="rounded=1;whiteSpace=wrap;html=1;fontFamily=Comfortaa;fillColor=#f1d15f;fontColor=#000000;strokeColor=none;fontStyle=1;opacity=90;fontSource=https%3A%2F%2Ffonts.googleapis.com%2Fcss%3Ffamily%3DComfortaa;" parent="RLlMxuBGRBKn2Z-enF3S-40" vertex="1">
          <mxGeometry x="265" y="30" width="80" height="40" as="geometry" />
        </mxCell>
        <mxCell id="RLlMxuBGRBKn2Z-enF3S-12" value="Stashing" style="rounded=1;whiteSpace=wrap;html=1;fontFamily=Comfortaa;fillColor=#f1d15f;fontColor=#000000;strokeColor=none;fontStyle=1;opacity=90;fontSource=https%3A%2F%2Ffonts.googleapis.com%2Fcss%3Ffamily%3DComfortaa;" parent="RLlMxuBGRBKn2Z-enF3S-40" vertex="1">
          <mxGeometry x="415" y="30" width="80" height="40" as="geometry" />
        </mxCell>
        <mxCell id="RLlMxuBGRBKn2Z-enF3S-13" value="Undoing Changes" style="rounded=1;whiteSpace=wrap;html=1;fontFamily=Comfortaa;fillColor=#f1d15f;fontColor=#000000;strokeColor=none;fontStyle=1;opacity=90;fontSource=https%3A%2F%2Ffonts.googleapis.com%2Fcss%3Ffamily%3DComfortaa;" parent="RLlMxuBGRBKn2Z-enF3S-40" vertex="1">
          <mxGeometry x="565" y="30" width="80" height="40" as="geometry" />
        </mxCell>
        <mxCell id="RLlMxuBGRBKn2Z-enF3S-30" value="Next Level" style="text;html=1;strokeColor=none;fillColor=none;align=center;verticalAlign=middle;whiteSpace=wrap;rounded=0;fontFamily=Comfortaa;fontSource=https%3A%2F%2Ffonts.googleapis.com%2Fcss%3Ffamily%3DComfortaa;fontColor=#000000;opacity=90;fontSize=70;fontStyle=0" parent="RLlMxuBGRBKn2Z-enF3S-40" vertex="1">
          <mxGeometry x="220" y="110" width="440" height="40" as="geometry" />
        </mxCell>
        <mxCell id="RLlMxuBGRBKn2Z-enF3S-41" value="" style="group;fontFamily=Comfortaa;fontSource=https%3A%2F%2Ffonts.googleapis.com%2Fcss%3Ffamily%3DComfortaa;" parent="RLlMxuBGRBKn2Z-enF3S-43" vertex="1" connectable="0">
          <mxGeometry x="280" y="60" width="880" height="210" as="geometry" />
        </mxCell>
        <mxCell id="RLlMxuBGRBKn2Z-enF3S-27" value="" style="rounded=1;whiteSpace=wrap;html=1;fontFamily=Comfortaa;fontSource=https%3A%2F%2Ffonts.googleapis.com%2Fcss%3Ffamily%3DComfortaa;fontColor=#FFFFFF;fillColor=#FFFFFF;opacity=90;" parent="RLlMxuBGRBKn2Z-enF3S-41" vertex="1">
          <mxGeometry width="880" height="210" as="geometry" />
        </mxCell>
        <mxCell id="RLlMxuBGRBKn2Z-enF3S-5" value="Intro to Git" style="rounded=1;whiteSpace=wrap;html=1;fontFamily=Comfortaa;fillColor=#1dad9b;fontColor=#FFFFFF;strokeColor=none;fontStyle=1;opacity=90;fontSource=https%3A%2F%2Ffonts.googleapis.com%2Fcss%3Ffamily%3DComfortaa;" parent="RLlMxuBGRBKn2Z-enF3S-41" vertex="1">
          <mxGeometry x="20" y="150" width="80" height="40" as="geometry" />
        </mxCell>
        <mxCell id="RLlMxuBGRBKn2Z-enF3S-6" value="Installation" style="rounded=1;whiteSpace=wrap;html=1;fontFamily=Comfortaa;fillColor=#1dad9b;fontColor=#FFFFFF;strokeColor=none;fontStyle=1;opacity=90;fontSource=https%3A%2F%2Ffonts.googleapis.com%2Fcss%3Ffamily%3DComfortaa;" parent="RLlMxuBGRBKn2Z-enF3S-41" vertex="1">
          <mxGeometry x="170" y="150" width="80" height="40" as="geometry" />
        </mxCell>
        <mxCell id="RLlMxuBGRBKn2Z-enF3S-7" value="Git Basics" style="rounded=1;whiteSpace=wrap;html=1;fontFamily=Comfortaa;fillColor=#1dad9b;fontColor=#FFFFFF;strokeColor=none;fontStyle=1;opacity=90;fontSource=https%3A%2F%2Ffonts.googleapis.com%2Fcss%3Ffamily%3DComfortaa;" parent="RLlMxuBGRBKn2Z-enF3S-41" vertex="1">
          <mxGeometry x="320" y="150" width="80" height="40" as="geometry" />
        </mxCell>
        <mxCell id="RLlMxuBGRBKn2Z-enF3S-8" value="Comitting in Detail" style="rounded=1;whiteSpace=wrap;html=1;fontFamily=Comfortaa;fillColor=#1dad9b;fontColor=#FFFFFF;strokeColor=none;fontStyle=1;opacity=90;fontSource=https%3A%2F%2Ffonts.googleapis.com%2Fcss%3Ffamily%3DComfortaa;" parent="RLlMxuBGRBKn2Z-enF3S-41" vertex="1">
          <mxGeometry x="470" y="150" width="80" height="40" as="geometry" />
        </mxCell>
        <mxCell id="RLlMxuBGRBKn2Z-enF3S-9" value="Branching" style="rounded=1;whiteSpace=wrap;html=1;fontFamily=Comfortaa;fillColor=#1dad9b;fontColor=#FFFFFF;strokeColor=none;fontStyle=1;opacity=90;fontSource=https%3A%2F%2Ffonts.googleapis.com%2Fcss%3Ffamily%3DComfortaa;" parent="RLlMxuBGRBKn2Z-enF3S-41" vertex="1">
          <mxGeometry x="620" y="150" width="80" height="40" as="geometry" />
        </mxCell>
        <mxCell id="RLlMxuBGRBKn2Z-enF3S-10" value="Merging" style="rounded=1;whiteSpace=wrap;html=1;fontFamily=Comfortaa;fillColor=#1dad9b;fontColor=#FFFFFF;strokeColor=none;fontStyle=1;opacity=90;fontSource=https%3A%2F%2Ffonts.googleapis.com%2Fcss%3Ffamily%3DComfortaa;" parent="RLlMxuBGRBKn2Z-enF3S-41" vertex="1">
          <mxGeometry x="770" y="150" width="80" height="40" as="geometry" />
        </mxCell>
        <mxCell id="RLlMxuBGRBKn2Z-enF3S-28" value="Core" style="text;html=1;strokeColor=none;fillColor=none;align=center;verticalAlign=middle;whiteSpace=wrap;rounded=0;fontFamily=Comfortaa;fontSource=https%3A%2F%2Ffonts.googleapis.com%2Fcss%3Ffamily%3DComfortaa;fontColor=#000000;opacity=90;fontSize=70;fontStyle=0" parent="RLlMxuBGRBKn2Z-enF3S-41" vertex="1">
          <mxGeometry x="410" y="60" width="80" height="40" as="geometry" />
        </mxCell>
        <mxCell id="RLlMxuBGRBKn2Z-enF3S-42" value="" style="group;fontStyle=1;fontFamily=Comfortaa;fontSource=https%3A%2F%2Ffonts.googleapis.com%2Fcss%3Ffamily%3DComfortaa;" parent="RLlMxuBGRBKn2Z-enF3S-43" vertex="1" connectable="0">
          <mxGeometry x="260" y="510" width="890" height="225" as="geometry" />
        </mxCell>
        <mxCell id="RLlMxuBGRBKn2Z-enF3S-38" value="G" style="rounded=1;whiteSpace=wrap;html=1;fontFamily=Comfortaa;fontSource=https%3A%2F%2Ffonts.googleapis.com%2Fcss%3Ffamily%3DComfortaa;fontColor=#FFFFFF;fillColor=#FFFFFF;opacity=90;" parent="RLlMxuBGRBKn2Z-enF3S-42" vertex="1">
          <mxGeometry width="890" height="225" as="geometry" />
        </mxCell>
        <mxCell id="RLlMxuBGRBKn2Z-enF3S-39" value="&lt;font style=&quot;font-size: 60px&quot;&gt;Git: The Other Parts&lt;/font&gt;" style="text;html=1;strokeColor=none;fillColor=none;align=center;verticalAlign=middle;whiteSpace=wrap;rounded=0;fontFamily=Comfortaa;fontSource=https%3A%2F%2Ffonts.googleapis.com%2Fcss%3Ffamily%3DComfortaa;fontColor=#000000;opacity=90;fontSize=70;fontStyle=0" parent="RLlMxuBGRBKn2Z-enF3S-42" vertex="1">
          <mxGeometry x="60" y="50" width="790" height="10" as="geometry" />
        </mxCell>
        <mxCell id="RLlMxuBGRBKn2Z-enF3S-20" value="Rebasing" style="rounded=1;whiteSpace=wrap;html=1;fontFamily=Comfortaa;fillColor=#f1d15f;fontColor=#000000;strokeColor=none;fontStyle=1;opacity=90;fontSource=https%3A%2F%2Ffonts.googleapis.com%2Fcss%3Ffamily%3DComfortaa;" parent="RLlMxuBGRBKn2Z-enF3S-42" vertex="1">
          <mxGeometry x="185" y="90" width="80" height="40" as="geometry" />
        </mxCell>
        <mxCell id="RLlMxuBGRBKn2Z-enF3S-21" value="Interactive Rebasing" style="rounded=1;whiteSpace=wrap;html=1;fontFamily=Comfortaa;fillColor=#f1d15f;fontColor=#000000;strokeColor=none;fontStyle=1;opacity=90;fontSource=https%3A%2F%2Ffonts.googleapis.com%2Fcss%3Ffamily%3DComfortaa;" parent="RLlMxuBGRBKn2Z-enF3S-42" vertex="1">
          <mxGeometry x="335" y="90" width="80" height="40" as="geometry" />
        </mxCell>
        <mxCell id="RLlMxuBGRBKn2Z-enF3S-22" value="Git Tags" style="rounded=1;whiteSpace=wrap;html=1;fontFamily=Comfortaa;fillColor=#f1d15f;fontColor=#000000;strokeColor=none;fontStyle=1;opacity=90;fontSource=https%3A%2F%2Ffonts.googleapis.com%2Fcss%3Ffamily%3DComfortaa;" parent="RLlMxuBGRBKn2Z-enF3S-42" vertex="1">
          <mxGeometry x="485" y="90" width="80" height="40" as="geometry" />
        </mxCell>
        <mxCell id="RLlMxuBGRBKn2Z-enF3S-24" value="Custom Alias" style="rounded=1;whiteSpace=wrap;html=1;fontFamily=Comfortaa;fillColor=#f1d15f;fontColor=#000000;strokeColor=none;fontStyle=1;opacity=90;fontSource=https%3A%2F%2Ffonts.googleapis.com%2Fcss%3Ffamily%3DComfortaa;" parent="RLlMxuBGRBKn2Z-enF3S-42" vertex="1">
          <mxGeometry x="335" y="170" width="80" height="40" as="geometry" />
        </mxCell>
        <mxCell id="RLlMxuBGRBKn2Z-enF3S-25" value="Git Behind The Scenes" style="rounded=1;whiteSpace=wrap;html=1;fontFamily=Comfortaa;fillColor=#C94E4E;fontColor=#FFFFFF;strokeColor=none;fontStyle=1;opacity=90;fontSource=https%3A%2F%2Ffonts.googleapis.com%2Fcss%3Ffamily%3DComfortaa;" parent="RLlMxuBGRBKn2Z-enF3S-42" vertex="1">
          <mxGeometry x="635" y="90" width="80" height="40" as="geometry" />
        </mxCell>
        <mxCell id="7QnyjjttsohZfY4Z54D--1" value="Reflogs" style="rounded=1;whiteSpace=wrap;html=1;fontFamily=Comfortaa;fillColor=#f1d15f;fontColor=#000000;strokeColor=none;fontStyle=1;opacity=90;fontSource=https%3A%2F%2Ffonts.googleapis.com%2Fcss%3Ffamily%3DComfortaa;" vertex="1" parent="1">
          <mxGeometry x="415" y="670" width="80" height="40" as="geometry" />
        </mxCell>
      </root>
    </mxGraphModel>
  </diagram>
  <diagram id="e8QEUQOg87NNPrtPo8MH" name="Intro To Git">
    <mxGraphModel dx="3547" dy="1058" grid="1" gridSize="10" guides="1" tooltips="1" connect="1" arrows="1" fold="1" page="1" pageScale="1" pageWidth="1700" pageHeight="1100" math="0" shadow="0">
      <root>
        <mxCell id="7qyreJFQKD9GQNdFZ3iJ-0" />
        <mxCell id="7qyreJFQKD9GQNdFZ3iJ-1" parent="7qyreJFQKD9GQNdFZ3iJ-0" />
        <mxCell id="oT2YBWjofOa8ZjLPY6vs-1" value="Intro to Git" style="swimlane;fontStyle=1;childLayout=stackLayout;horizontal=1;startSize=30;horizontalStack=0;resizeParent=1;resizeParentMax=0;resizeLast=0;collapsible=1;marginBottom=0;fontFamily=Comfortaa;fontSource=https%3A%2F%2Ffonts.googleapis.com%2Fcss%3Ffamily%3DComfortaa;fontSize=20;fontColor=#000000;fillColor=#1DAD9B;opacity=90;" vertex="1" parent="7qyreJFQKD9GQNdFZ3iJ-1">
          <mxGeometry x="100" y="675" width="300" height="180" as="geometry" />
        </mxCell>
        <mxCell id="oT2YBWjofOa8ZjLPY6vs-2" value="What is Git?" style="text;strokeColor=none;fillColor=none;align=left;verticalAlign=middle;spacingLeft=4;spacingRight=4;overflow=hidden;points=[[0,0.5],[1,0.5]];portConstraint=eastwest;rotatable=0;fontFamily=Comfortaa;fontSource=https%3A%2F%2Ffonts.googleapis.com%2Fcss%3Ffamily%3DComfortaa;fontSize=20;fontColor=#000000;opacity=90;spacing=2;spacingTop=1;" vertex="1" parent="oT2YBWjofOa8ZjLPY6vs-1">
          <mxGeometry y="30" width="300" height="30" as="geometry" />
        </mxCell>
        <mxCell id="oT2YBWjofOa8ZjLPY6vs-3" value="What git does for us?" style="text;strokeColor=none;fillColor=none;align=left;verticalAlign=middle;spacingLeft=4;spacingRight=4;overflow=hidden;points=[[0,0.5],[1,0.5]];portConstraint=eastwest;rotatable=0;fontFamily=Comfortaa;fontSource=https%3A%2F%2Ffonts.googleapis.com%2Fcss%3Ffamily%3DComfortaa;fontSize=20;fontColor=#000000;opacity=90;spacing=2;spacingTop=1;" vertex="1" parent="oT2YBWjofOa8ZjLPY6vs-1">
          <mxGeometry y="60" width="300" height="30" as="geometry" />
        </mxCell>
        <mxCell id="oT2YBWjofOa8ZjLPY6vs-4" value="History of Git" style="text;strokeColor=none;fillColor=none;align=left;verticalAlign=middle;spacingLeft=4;spacingRight=4;overflow=hidden;points=[[0,0.5],[1,0.5]];portConstraint=eastwest;rotatable=0;fontFamily=Comfortaa;fontSource=https%3A%2F%2Ffonts.googleapis.com%2Fcss%3Ffamily%3DComfortaa;fontSize=20;fontColor=#000000;opacity=90;spacing=2;spacingTop=1;" vertex="1" parent="oT2YBWjofOa8ZjLPY6vs-1">
          <mxGeometry y="90" width="300" height="30" as="geometry" />
        </mxCell>
        <mxCell id="oT2YBWjofOa8ZjLPY6vs-5" value="Who uses Git" style="text;strokeColor=none;fillColor=none;align=left;verticalAlign=middle;spacingLeft=4;spacingRight=4;overflow=hidden;points=[[0,0.5],[1,0.5]];portConstraint=eastwest;rotatable=0;fontFamily=Comfortaa;fontSource=https%3A%2F%2Ffonts.googleapis.com%2Fcss%3Ffamily%3DComfortaa;fontSize=20;fontColor=#000000;opacity=90;spacing=2;spacingTop=1;" vertex="1" parent="oT2YBWjofOa8ZjLPY6vs-1">
          <mxGeometry y="120" width="300" height="30" as="geometry" />
        </mxCell>
        <mxCell id="oT2YBWjofOa8ZjLPY6vs-6" value="Git vs. Github" style="text;strokeColor=none;fillColor=none;align=left;verticalAlign=middle;spacingLeft=4;spacingRight=4;overflow=hidden;points=[[0,0.5],[1,0.5]];portConstraint=eastwest;rotatable=0;fontFamily=Comfortaa;fontSource=https%3A%2F%2Ffonts.googleapis.com%2Fcss%3Ffamily%3DComfortaa;fontSize=20;fontColor=#000000;opacity=90;spacing=2;spacingTop=1;" vertex="1" parent="oT2YBWjofOa8ZjLPY6vs-1">
          <mxGeometry y="150" width="300" height="30" as="geometry" />
        </mxCell>
        <mxCell id="oT2YBWjofOa8ZjLPY6vs-7" value="Version Control System" style="rounded=1;whiteSpace=wrap;html=1;fontFamily=Comfortaa;fontSource=https%3A%2F%2Ffonts.googleapis.com%2Fcss%3Ffamily%3DComfortaa;fontSize=20;fontColor=#000000;fillColor=#F5F5F5;opacity=90;" vertex="1" parent="7qyreJFQKD9GQNdFZ3iJ-1">
          <mxGeometry x="550" y="680" width="190" height="80" as="geometry" />
        </mxCell>
        <mxCell id="oT2YBWjofOa8ZjLPY6vs-8" style="edgeStyle=orthogonalEdgeStyle;rounded=0;orthogonalLoop=1;jettySize=auto;html=1;entryX=0;entryY=0.5;entryDx=0;entryDy=0;fontFamily=Comfortaa;fontSource=https%3A%2F%2Ffonts.googleapis.com%2Fcss%3Ffamily%3DComfortaa;fontSize=20;fontColor=#000000;" edge="1" parent="7qyreJFQKD9GQNdFZ3iJ-1" source="oT2YBWjofOa8ZjLPY6vs-2" target="oT2YBWjofOa8ZjLPY6vs-7">
          <mxGeometry relative="1" as="geometry" />
        </mxCell>
        <mxCell id="oT2YBWjofOa8ZjLPY6vs-9" value="What git does for us?" style="swimlane;fontStyle=0;childLayout=stackLayout;horizontal=1;startSize=30;horizontalStack=0;resizeParent=1;resizeParentMax=0;resizeLast=0;collapsible=1;marginBottom=0;fontFamily=Comfortaa;fontSource=https%3A%2F%2Ffonts.googleapis.com%2Fcss%3Ffamily%3DComfortaa;fontSize=20;fontColor=#000000;fillColor=#1DAD9B;opacity=70;" vertex="1" parent="7qyreJFQKD9GQNdFZ3iJ-1">
          <mxGeometry x="530" y="945" width="350" height="180" as="geometry" />
        </mxCell>
        <mxCell id="oT2YBWjofOa8ZjLPY6vs-10" value="Track files" style="text;strokeColor=none;fillColor=none;align=left;verticalAlign=middle;spacingLeft=4;spacingRight=4;overflow=hidden;points=[[0,0.5],[1,0.5]];portConstraint=eastwest;rotatable=0;fontFamily=Comfortaa;fontSource=https%3A%2F%2Ffonts.googleapis.com%2Fcss%3Ffamily%3DComfortaa;fontSize=20;fontColor=#000000;opacity=90;" vertex="1" parent="oT2YBWjofOa8ZjLPY6vs-9">
          <mxGeometry y="30" width="350" height="30" as="geometry" />
        </mxCell>
        <mxCell id="oT2YBWjofOa8ZjLPY6vs-11" value="Compare versions" style="text;strokeColor=none;fillColor=none;align=left;verticalAlign=middle;spacingLeft=4;spacingRight=4;overflow=hidden;points=[[0,0.5],[1,0.5]];portConstraint=eastwest;rotatable=0;fontFamily=Comfortaa;fontSource=https%3A%2F%2Ffonts.googleapis.com%2Fcss%3Ffamily%3DComfortaa;fontSize=20;fontColor=#000000;opacity=90;" vertex="1" parent="oT2YBWjofOa8ZjLPY6vs-9">
          <mxGeometry y="60" width="350" height="30" as="geometry" />
        </mxCell>
        <mxCell id="oT2YBWjofOa8ZjLPY6vs-12" value="Time travel back to old versions" style="text;strokeColor=none;fillColor=none;align=left;verticalAlign=middle;spacingLeft=4;spacingRight=4;overflow=hidden;points=[[0,0.5],[1,0.5]];portConstraint=eastwest;rotatable=0;fontFamily=Comfortaa;fontSource=https%3A%2F%2Ffonts.googleapis.com%2Fcss%3Ffamily%3DComfortaa;fontSize=20;fontColor=#000000;opacity=90;" vertex="1" parent="oT2YBWjofOa8ZjLPY6vs-9">
          <mxGeometry y="90" width="350" height="30" as="geometry" />
        </mxCell>
        <mxCell id="oT2YBWjofOa8ZjLPY6vs-13" value="Collab and share changes" style="text;strokeColor=none;fillColor=none;align=left;verticalAlign=middle;spacingLeft=4;spacingRight=4;overflow=hidden;points=[[0,0.5],[1,0.5]];portConstraint=eastwest;rotatable=0;fontFamily=Comfortaa;fontSource=https%3A%2F%2Ffonts.googleapis.com%2Fcss%3Ffamily%3DComfortaa;fontSize=20;fontColor=#000000;opacity=90;" vertex="1" parent="oT2YBWjofOa8ZjLPY6vs-9">
          <mxGeometry y="120" width="350" height="30" as="geometry" />
        </mxCell>
        <mxCell id="oT2YBWjofOa8ZjLPY6vs-14" value="Combine changes" style="text;strokeColor=none;fillColor=none;align=left;verticalAlign=middle;spacingLeft=4;spacingRight=4;overflow=hidden;points=[[0,0.5],[1,0.5]];portConstraint=eastwest;rotatable=0;fontFamily=Comfortaa;fontSource=https%3A%2F%2Ffonts.googleapis.com%2Fcss%3Ffamily%3DComfortaa;fontSize=20;fontColor=#000000;opacity=90;" vertex="1" parent="oT2YBWjofOa8ZjLPY6vs-9">
          <mxGeometry y="150" width="350" height="30" as="geometry" />
        </mxCell>
        <mxCell id="oT2YBWjofOa8ZjLPY6vs-15" style="edgeStyle=orthogonalEdgeStyle;rounded=0;orthogonalLoop=1;jettySize=auto;html=1;fontFamily=Comfortaa;fontSource=https%3A%2F%2Ffonts.googleapis.com%2Fcss%3Ffamily%3DComfortaa;fontSize=20;fontColor=#000000;" edge="1" parent="7qyreJFQKD9GQNdFZ3iJ-1" source="oT2YBWjofOa8ZjLPY6vs-3" target="oT2YBWjofOa8ZjLPY6vs-9">
          <mxGeometry relative="1" as="geometry">
            <Array as="points">
              <mxPoint x="420" y="750" />
              <mxPoint x="420" y="815" />
              <mxPoint x="705" y="815" />
            </Array>
          </mxGeometry>
        </mxCell>
        <mxCell id="oT2YBWjofOa8ZjLPY6vs-16" value="Creator: Linus Torvarlds =&amp;gt; Linux Creator" style="rounded=1;whiteSpace=wrap;html=1;fontFamily=Comfortaa;fontSource=https%3A%2F%2Ffonts.googleapis.com%2Fcss%3Ffamily%3DComfortaa;fontSize=20;fontColor=#000000;fillColor=#F5F5F5;opacity=90;" vertex="1" parent="7qyreJFQKD9GQNdFZ3iJ-1">
          <mxGeometry x="-350" y="600" width="190" height="80" as="geometry" />
        </mxCell>
        <mxCell id="oT2YBWjofOa8ZjLPY6vs-17" style="edgeStyle=orthogonalEdgeStyle;rounded=0;orthogonalLoop=1;jettySize=auto;html=1;entryX=1;entryY=0.5;entryDx=0;entryDy=0;fontFamily=Comfortaa;fontSource=https%3A%2F%2Ffonts.googleapis.com%2Fcss%3Ffamily%3DComfortaa;fontSize=20;fontColor=#000000;" edge="1" parent="7qyreJFQKD9GQNdFZ3iJ-1" source="oT2YBWjofOa8ZjLPY6vs-4" target="oT2YBWjofOa8ZjLPY6vs-16">
          <mxGeometry relative="1" as="geometry" />
        </mxCell>
        <mxCell id="oT2YBWjofOa8ZjLPY6vs-18" style="edgeStyle=orthogonalEdgeStyle;rounded=0;orthogonalLoop=1;jettySize=auto;html=1;fontFamily=Comfortaa;fontSource=https%3A%2F%2Ffonts.googleapis.com%2Fcss%3Ffamily%3DComfortaa;fontSize=20;fontColor=#000000;" edge="1" parent="7qyreJFQKD9GQNdFZ3iJ-1" source="oT2YBWjofOa8ZjLPY6vs-5" target="oT2YBWjofOa8ZjLPY6vs-19">
          <mxGeometry relative="1" as="geometry">
            <mxPoint x="-170" y="934.9999999999995" as="targetPoint" />
          </mxGeometry>
        </mxCell>
        <mxCell id="oT2YBWjofOa8ZjLPY6vs-19" value="Who use Git?" style="swimlane;fontStyle=0;childLayout=stackLayout;horizontal=1;startSize=30;horizontalStack=0;resizeParent=1;resizeParentMax=0;resizeLast=0;collapsible=1;marginBottom=0;fontFamily=Comfortaa;fontSource=https%3A%2F%2Ffonts.googleapis.com%2Fcss%3Ffamily%3DComfortaa;fontSize=20;fontColor=#000000;fillColor=#1DAD9B;opacity=70;" vertex="1" parent="7qyreJFQKD9GQNdFZ3iJ-1">
          <mxGeometry x="-580" y="955" width="420" height="210" as="geometry" />
        </mxCell>
        <mxCell id="oT2YBWjofOa8ZjLPY6vs-20" value="Engineers &amp; Coders" style="text;strokeColor=none;fillColor=none;align=left;verticalAlign=middle;spacingLeft=4;spacingRight=4;overflow=hidden;points=[[0,0.5],[1,0.5]];portConstraint=eastwest;rotatable=0;fontFamily=Comfortaa;fontSource=https%3A%2F%2Ffonts.googleapis.com%2Fcss%3Ffamily%3DComfortaa;fontSize=20;fontColor=#000000;opacity=70;" vertex="1" parent="oT2YBWjofOa8ZjLPY6vs-19">
          <mxGeometry y="30" width="420" height="30" as="geometry" />
        </mxCell>
        <mxCell id="oT2YBWjofOa8ZjLPY6vs-21" value="Tech-Adjacent Roles " style="text;strokeColor=none;fillColor=none;align=left;verticalAlign=middle;spacingLeft=4;spacingRight=4;overflow=hidden;points=[[0,0.5],[1,0.5]];portConstraint=eastwest;rotatable=0;fontFamily=Comfortaa;fontSource=https%3A%2F%2Ffonts.googleapis.com%2Fcss%3Ffamily%3DComfortaa;fontSize=20;fontColor=#000000;opacity=70;" vertex="1" parent="oT2YBWjofOa8ZjLPY6vs-19">
          <mxGeometry y="60" width="420" height="30" as="geometry" />
        </mxCell>
        <mxCell id="oT2YBWjofOa8ZjLPY6vs-22" value="Governments &amp; Large Organization" style="text;strokeColor=none;fillColor=none;align=left;verticalAlign=middle;spacingLeft=4;spacingRight=4;overflow=hidden;points=[[0,0.5],[1,0.5]];portConstraint=eastwest;rotatable=0;fontFamily=Comfortaa;fontSource=https%3A%2F%2Ffonts.googleapis.com%2Fcss%3Ffamily%3DComfortaa;fontSize=20;fontColor=#000000;opacity=70;" vertex="1" parent="oT2YBWjofOa8ZjLPY6vs-19">
          <mxGeometry y="90" width="420" height="30" as="geometry" />
        </mxCell>
        <mxCell id="oT2YBWjofOa8ZjLPY6vs-23" value="Scientists" style="text;strokeColor=none;fillColor=none;align=left;verticalAlign=middle;spacingLeft=4;spacingRight=4;overflow=hidden;points=[[0,0.5],[1,0.5]];portConstraint=eastwest;rotatable=0;fontFamily=Comfortaa;fontSource=https%3A%2F%2Ffonts.googleapis.com%2Fcss%3Ffamily%3DComfortaa;fontSize=20;fontColor=#000000;opacity=70;" vertex="1" parent="oT2YBWjofOa8ZjLPY6vs-19">
          <mxGeometry y="120" width="420" height="30" as="geometry" />
        </mxCell>
        <mxCell id="oT2YBWjofOa8ZjLPY6vs-24" value="Writers" style="text;strokeColor=none;fillColor=none;align=left;verticalAlign=middle;spacingLeft=4;spacingRight=4;overflow=hidden;points=[[0,0.5],[1,0.5]];portConstraint=eastwest;rotatable=0;fontFamily=Comfortaa;fontSource=https%3A%2F%2Ffonts.googleapis.com%2Fcss%3Ffamily%3DComfortaa;fontSize=20;fontColor=#000000;opacity=70;" vertex="1" parent="oT2YBWjofOa8ZjLPY6vs-19">
          <mxGeometry y="150" width="420" height="30" as="geometry" />
        </mxCell>
        <mxCell id="oT2YBWjofOa8ZjLPY6vs-25" value="Anyone Really" style="text;strokeColor=none;fillColor=none;align=left;verticalAlign=middle;spacingLeft=4;spacingRight=4;overflow=hidden;points=[[0,0.5],[1,0.5]];portConstraint=eastwest;rotatable=0;fontFamily=Comfortaa;fontSource=https%3A%2F%2Ffonts.googleapis.com%2Fcss%3Ffamily%3DComfortaa;fontSize=20;fontColor=#000000;opacity=70;" vertex="1" parent="oT2YBWjofOa8ZjLPY6vs-19">
          <mxGeometry y="180" width="420" height="30" as="geometry" />
        </mxCell>
        <mxCell id="oT2YBWjofOa8ZjLPY6vs-26" value="" style="group;fontFamily=Comfortaa;fontSource=https%3A%2F%2Ffonts.googleapis.com%2Fcss%3Ffamily%3DComfortaa;" vertex="1" connectable="0" parent="7qyreJFQKD9GQNdFZ3iJ-1">
          <mxGeometry x="-150" y="1255" width="980" height="180" as="geometry" />
        </mxCell>
        <mxCell id="oT2YBWjofOa8ZjLPY6vs-27" value="" style="group;fontFamily=Comfortaa;fontSource=https%3A%2F%2Ffonts.googleapis.com%2Fcss%3Ffamily%3DComfortaa;" vertex="1" connectable="0" parent="oT2YBWjofOa8ZjLPY6vs-26">
          <mxGeometry width="980" height="165" as="geometry" />
        </mxCell>
        <mxCell id="oT2YBWjofOa8ZjLPY6vs-28" value="Github" style="swimlane;fontStyle=0;childLayout=stackLayout;horizontal=1;startSize=30;horizontalStack=0;resizeParent=1;resizeParentMax=0;resizeLast=0;collapsible=1;marginBottom=0;fontFamily=Comfortaa;fontSource=https%3A%2F%2Ffonts.googleapis.com%2Fcss%3Ffamily%3DComfortaa;fontSize=20;fontColor=#000000;fillColor=#1DAD9B;opacity=70;" vertex="1" parent="oT2YBWjofOa8ZjLPY6vs-27">
          <mxGeometry x="385" width="595" height="165" as="geometry" />
        </mxCell>
        <mxCell id="oT2YBWjofOa8ZjLPY6vs-29" value="Github is a web service that hosts Git repositories" style="text;strokeColor=none;fillColor=none;align=left;verticalAlign=middle;spacingLeft=4;spacingRight=4;overflow=hidden;points=[[0,0.5],[1,0.5]];portConstraint=eastwest;rotatable=0;fontFamily=Comfortaa;fontSource=https%3A%2F%2Ffonts.googleapis.com%2Fcss%3Ffamily%3DComfortaa;fontSize=20;fontColor=#000000;opacity=70;" vertex="1" parent="oT2YBWjofOa8ZjLPY6vs-28">
          <mxGeometry y="30" width="595" height="45" as="geometry" />
        </mxCell>
        <mxCell id="oT2YBWjofOa8ZjLPY6vs-30" value="Need internet and account" style="text;strokeColor=none;fillColor=none;align=left;verticalAlign=middle;spacingLeft=4;spacingRight=4;overflow=hidden;points=[[0,0.5],[1,0.5]];portConstraint=eastwest;rotatable=0;fontFamily=Comfortaa;fontSource=https%3A%2F%2Ffonts.googleapis.com%2Fcss%3Ffamily%3DComfortaa;fontSize=20;fontColor=#000000;opacity=70;" vertex="1" parent="oT2YBWjofOa8ZjLPY6vs-28">
          <mxGeometry y="75" width="595" height="45" as="geometry" />
        </mxCell>
        <mxCell id="oT2YBWjofOa8ZjLPY6vs-31" value="Collab with team/group" style="text;strokeColor=none;fillColor=none;align=left;verticalAlign=middle;spacingLeft=4;spacingRight=4;overflow=hidden;points=[[0,0.5],[1,0.5]];portConstraint=eastwest;rotatable=0;fontFamily=Comfortaa;fontSource=https%3A%2F%2Ffonts.googleapis.com%2Fcss%3Ffamily%3DComfortaa;fontSize=20;fontColor=#000000;opacity=70;" vertex="1" parent="oT2YBWjofOa8ZjLPY6vs-28">
          <mxGeometry y="120" width="595" height="45" as="geometry" />
        </mxCell>
        <mxCell id="oT2YBWjofOa8ZjLPY6vs-32" value="Git" style="swimlane;fontStyle=0;childLayout=stackLayout;horizontal=1;startSize=30;horizontalStack=0;resizeParent=1;resizeParentMax=0;resizeLast=0;collapsible=1;marginBottom=0;fontFamily=Comfortaa;fontSource=https%3A%2F%2Ffonts.googleapis.com%2Fcss%3Ffamily%3DComfortaa;fontSize=20;fontColor=#000000;fillColor=#1DAD9B;opacity=70;" vertex="1" parent="oT2YBWjofOa8ZjLPY6vs-27">
          <mxGeometry width="385" height="165" as="geometry" />
        </mxCell>
        <mxCell id="oT2YBWjofOa8ZjLPY6vs-33" value="Git is Version Control" style="text;strokeColor=none;fillColor=none;align=left;verticalAlign=middle;spacingLeft=4;spacingRight=4;overflow=hidden;points=[[0,0.5],[1,0.5]];portConstraint=eastwest;rotatable=0;fontFamily=Comfortaa;fontSource=https%3A%2F%2Ffonts.googleapis.com%2Fcss%3Ffamily%3DComfortaa;fontSize=20;fontColor=#000000;opacity=70;" vertex="1" parent="oT2YBWjofOa8ZjLPY6vs-32">
          <mxGeometry y="30" width="385" height="45" as="geometry" />
        </mxCell>
        <mxCell id="oT2YBWjofOa8ZjLPY6vs-34" value="Run locally without internet" style="text;strokeColor=none;fillColor=none;align=left;verticalAlign=middle;spacingLeft=4;spacingRight=4;overflow=hidden;points=[[0,0.5],[1,0.5]];portConstraint=eastwest;rotatable=0;fontFamily=Comfortaa;fontSource=https%3A%2F%2Ffonts.googleapis.com%2Fcss%3Ffamily%3DComfortaa;fontSize=20;fontColor=#000000;opacity=70;" vertex="1" parent="oT2YBWjofOa8ZjLPY6vs-32">
          <mxGeometry y="75" width="385" height="45" as="geometry" />
        </mxCell>
        <mxCell id="oT2YBWjofOa8ZjLPY6vs-35" value="Work alone" style="text;strokeColor=none;fillColor=none;align=left;verticalAlign=middle;spacingLeft=4;spacingRight=4;overflow=hidden;points=[[0,0.5],[1,0.5]];portConstraint=eastwest;rotatable=0;fontFamily=Comfortaa;fontSource=https%3A%2F%2Ffonts.googleapis.com%2Fcss%3Ffamily%3DComfortaa;fontSize=20;fontColor=#000000;opacity=70;" vertex="1" parent="oT2YBWjofOa8ZjLPY6vs-32">
          <mxGeometry y="120" width="385" height="45" as="geometry" />
        </mxCell>
        <mxCell id="oT2YBWjofOa8ZjLPY6vs-36" style="edgeStyle=orthogonalEdgeStyle;rounded=0;orthogonalLoop=1;jettySize=auto;html=1;entryX=1;entryY=0.5;entryDx=0;entryDy=0;fontFamily=Comfortaa;fontSource=https%3A%2F%2Ffonts.googleapis.com%2Fcss%3Ffamily%3DComfortaa;fontSize=20;fontColor=#000000;" edge="1" parent="7qyreJFQKD9GQNdFZ3iJ-1" source="oT2YBWjofOa8ZjLPY6vs-20" target="oT2YBWjofOa8ZjLPY6vs-38">
          <mxGeometry relative="1" as="geometry" />
        </mxCell>
        <mxCell id="oT2YBWjofOa8ZjLPY6vs-37" value="" style="group;fontFamily=Comfortaa;fontSource=https%3A%2F%2Ffonts.googleapis.com%2Fcss%3Ffamily%3DComfortaa;" vertex="1" connectable="0" parent="7qyreJFQKD9GQNdFZ3iJ-1">
          <mxGeometry x="-960" y="975" width="270" height="90" as="geometry" />
        </mxCell>
        <mxCell id="oT2YBWjofOa8ZjLPY6vs-38" value="https://stackshare.io/git" style="rounded=0;whiteSpace=wrap;html=1;fontFamily=Comfortaa;fontSource=https%3A%2F%2Ffonts.googleapis.com%2Fcss%3Ffamily%3DComfortaa;fontSize=20;fontColor=#000000;fillColor=#FFFFFF;opacity=40;" vertex="1" parent="oT2YBWjofOa8ZjLPY6vs-37">
          <mxGeometry y="30" width="270" height="60" as="geometry" />
        </mxCell>
        <mxCell id="oT2YBWjofOa8ZjLPY6vs-39" value="Company Using It" style="rounded=0;whiteSpace=wrap;html=1;fontFamily=Comfortaa;fontSource=https%3A%2F%2Ffonts.googleapis.com%2Fcss%3Ffamily%3DComfortaa;fontSize=20;fontColor=#000000;fillColor=#1DAD9B;opacity=40;" vertex="1" parent="oT2YBWjofOa8ZjLPY6vs-37">
          <mxGeometry width="270" height="30" as="geometry" />
        </mxCell>
        <mxCell id="oT2YBWjofOa8ZjLPY6vs-40" value="" style="group;fontFamily=Comfortaa;fontSource=https%3A%2F%2Ffonts.googleapis.com%2Fcss%3Ffamily%3DComfortaa;" vertex="1" connectable="0" parent="7qyreJFQKD9GQNdFZ3iJ-1">
          <mxGeometry x="-1120" y="1165" width="480" height="110" as="geometry" />
        </mxCell>
        <mxCell id="oT2YBWjofOa8ZjLPY6vs-41" value="" style="group;fontFamily=Comfortaa;fontSource=https%3A%2F%2Ffonts.googleapis.com%2Fcss%3Ffamily%3DComfortaa;" vertex="1" connectable="0" parent="oT2YBWjofOa8ZjLPY6vs-40">
          <mxGeometry width="480" height="110" as="geometry" />
        </mxCell>
        <mxCell id="oT2YBWjofOa8ZjLPY6vs-42" value="https://government.github.com/community/" style="rounded=0;whiteSpace=wrap;html=1;fontFamily=Comfortaa;fontSource=https%3A%2F%2Ffonts.googleapis.com%2Fcss%3Ffamily%3DComfortaa;fontSize=20;fontColor=#000000;fillColor=#FFFFFF;opacity=40;" vertex="1" parent="oT2YBWjofOa8ZjLPY6vs-41">
          <mxGeometry y="36.666666666666664" width="480" height="73.33333333333333" as="geometry" />
        </mxCell>
        <mxCell id="oT2YBWjofOa8ZjLPY6vs-43" value="Governments Using It" style="rounded=0;whiteSpace=wrap;html=1;fontFamily=Comfortaa;fontSource=https%3A%2F%2Ffonts.googleapis.com%2Fcss%3Ffamily%3DComfortaa;fontSize=20;fontColor=#000000;fillColor=#1DAD9B;opacity=40;" vertex="1" parent="oT2YBWjofOa8ZjLPY6vs-41">
          <mxGeometry width="480" height="36.666666666666664" as="geometry" />
        </mxCell>
        <mxCell id="oT2YBWjofOa8ZjLPY6vs-44" style="edgeStyle=orthogonalEdgeStyle;rounded=0;orthogonalLoop=1;jettySize=auto;html=1;entryX=1;entryY=0.5;entryDx=0;entryDy=0;fontFamily=Comfortaa;fontSource=https%3A%2F%2Ffonts.googleapis.com%2Fcss%3Ffamily%3DComfortaa;fontSize=20;fontColor=#000000;" edge="1" parent="7qyreJFQKD9GQNdFZ3iJ-1" source="oT2YBWjofOa8ZjLPY6vs-22" target="oT2YBWjofOa8ZjLPY6vs-43">
          <mxGeometry relative="1" as="geometry" />
        </mxCell>
        <mxCell id="oT2YBWjofOa8ZjLPY6vs-45" style="edgeStyle=orthogonalEdgeStyle;rounded=0;orthogonalLoop=1;jettySize=auto;html=1;fontFamily=Comfortaa;fontSource=https%3A%2F%2Ffonts.googleapis.com%2Fcss%3Ffamily%3DComfortaa;fontSize=20;fontColor=#000000;" edge="1" parent="7qyreJFQKD9GQNdFZ3iJ-1" source="oT2YBWjofOa8ZjLPY6vs-6" target="oT2YBWjofOa8ZjLPY6vs-32">
          <mxGeometry relative="1" as="geometry" />
        </mxCell>
      </root>
    </mxGraphModel>
  </diagram>
  <diagram id="4YW_jkJmjnhPKuhaL0nX" name="Installation">
    <mxGraphModel dx="2216" dy="1270" grid="1" gridSize="10" guides="1" tooltips="1" connect="1" arrows="1" fold="1" page="1" pageScale="1" pageWidth="1700" pageHeight="1100" math="0" shadow="0">
      <root>
        <mxCell id="nFPy5RHOB_t1wcvlbLqu-0" />
        <mxCell id="nFPy5RHOB_t1wcvlbLqu-1" parent="nFPy5RHOB_t1wcvlbLqu-0" />
        <mxCell id="PRT0lcISxdgQb2YjQAxH-0" value="Git is (Primarily) A Terminal Tool" style="rounded=1;whiteSpace=wrap;html=1;fontFamily=Comfortaa;fontSource=https%3A%2F%2Ffonts.googleapis.com%2Fcss%3Ffamily%3DComfortaa;fontSize=20;fontColor=#000000;fillColor=#F5F5F5;opacity=90;" vertex="1" parent="nFPy5RHOB_t1wcvlbLqu-1">
          <mxGeometry x="1180" y="870" width="190" height="80" as="geometry" />
        </mxCell>
        <mxCell id="PRT0lcISxdgQb2YjQAxH-1" value="The Rise of GUIs Tools" style="swimlane;fontStyle=0;childLayout=stackLayout;horizontal=1;startSize=30;horizontalStack=0;resizeParent=1;resizeParentMax=0;resizeLast=0;collapsible=1;marginBottom=0;fontFamily=Comfortaa;fontSource=https%3A%2F%2Ffonts.googleapis.com%2Fcss%3Ffamily%3DComfortaa;fontSize=20;fontColor=#000000;fillColor=#FFFFFF;opacity=40;" vertex="1" parent="nFPy5RHOB_t1wcvlbLqu-1">
          <mxGeometry x="1040" y="990" width="280" height="180" as="geometry" />
        </mxCell>
        <mxCell id="PRT0lcISxdgQb2YjQAxH-2" value="Github Desktop" style="text;strokeColor=none;fillColor=none;align=left;verticalAlign=middle;spacingLeft=4;spacingRight=4;overflow=hidden;points=[[0,0.5],[1,0.5]];portConstraint=eastwest;rotatable=0;fontFamily=Comfortaa;fontSource=https%3A%2F%2Ffonts.googleapis.com%2Fcss%3Ffamily%3DComfortaa;fontSize=20;fontColor=#000000;opacity=40;" vertex="1" parent="PRT0lcISxdgQb2YjQAxH-1">
          <mxGeometry y="30" width="280" height="30" as="geometry" />
        </mxCell>
        <mxCell id="PRT0lcISxdgQb2YjQAxH-3" value="SourceTree" style="text;strokeColor=none;fillColor=none;align=left;verticalAlign=middle;spacingLeft=4;spacingRight=4;overflow=hidden;points=[[0,0.5],[1,0.5]];portConstraint=eastwest;rotatable=0;fontFamily=Comfortaa;fontSource=https%3A%2F%2Ffonts.googleapis.com%2Fcss%3Ffamily%3DComfortaa;fontSize=20;fontColor=#000000;opacity=40;" vertex="1" parent="PRT0lcISxdgQb2YjQAxH-1">
          <mxGeometry y="60" width="280" height="30" as="geometry" />
        </mxCell>
        <mxCell id="PRT0lcISxdgQb2YjQAxH-4" value="GitKraken" style="text;strokeColor=none;fillColor=none;align=left;verticalAlign=middle;spacingLeft=4;spacingRight=4;overflow=hidden;points=[[0,0.5],[1,0.5]];portConstraint=eastwest;rotatable=0;fontFamily=Comfortaa;fontSource=https%3A%2F%2Ffonts.googleapis.com%2Fcss%3Ffamily%3DComfortaa;fontSize=20;fontColor=#000000;opacity=40;" vertex="1" parent="PRT0lcISxdgQb2YjQAxH-1">
          <mxGeometry y="90" width="280" height="30" as="geometry" />
        </mxCell>
        <mxCell id="PRT0lcISxdgQb2YjQAxH-5" value="..." style="text;strokeColor=none;fillColor=none;align=left;verticalAlign=middle;spacingLeft=4;spacingRight=4;overflow=hidden;points=[[0,0.5],[1,0.5]];portConstraint=eastwest;rotatable=0;fontFamily=Comfortaa;fontSource=https%3A%2F%2Ffonts.googleapis.com%2Fcss%3Ffamily%3DComfortaa;fontSize=20;fontColor=#000000;opacity=40;" vertex="1" parent="PRT0lcISxdgQb2YjQAxH-1">
          <mxGeometry y="120" width="280" height="30" as="geometry" />
        </mxCell>
        <mxCell id="PRT0lcISxdgQb2YjQAxH-6" value="https://git-scm.com/downloads/guis" style="text;strokeColor=none;fillColor=none;align=left;verticalAlign=middle;spacingLeft=4;spacingRight=4;overflow=hidden;points=[[0,0.5],[1,0.5]];portConstraint=eastwest;rotatable=0;fontFamily=Comfortaa;fontSource=https%3A%2F%2Ffonts.googleapis.com%2Fcss%3Ffamily%3DComfortaa;fontSize=20;fontColor=#000000;opacity=40;" vertex="1" parent="PRT0lcISxdgQb2YjQAxH-1">
          <mxGeometry y="150" width="280" height="30" as="geometry" />
        </mxCell>
        <mxCell id="PRT0lcISxdgQb2YjQAxH-7" value="" style="group;fontFamily=Comfortaa;fontSource=https%3A%2F%2Ffonts.googleapis.com%2Fcss%3Ffamily%3DComfortaa;" vertex="1" connectable="0" parent="nFPy5RHOB_t1wcvlbLqu-1">
          <mxGeometry x="2050" y="850" width="1500" height="210" as="geometry" />
        </mxCell>
        <mxCell id="PRT0lcISxdgQb2YjQAxH-8" value="" style="group;fontFamily=Comfortaa;fontSource=https%3A%2F%2Ffonts.googleapis.com%2Fcss%3Ffamily%3DComfortaa;" vertex="1" connectable="0" parent="PRT0lcISxdgQb2YjQAxH-7">
          <mxGeometry y="30" width="1500" height="180" as="geometry" />
        </mxCell>
        <mxCell id="PRT0lcISxdgQb2YjQAxH-9" value="" style="group;fontFamily=Comfortaa;fontSource=https%3A%2F%2Ffonts.googleapis.com%2Fcss%3Ffamily%3DComfortaa;" vertex="1" connectable="0" parent="PRT0lcISxdgQb2YjQAxH-8">
          <mxGeometry width="1500" height="165" as="geometry" />
        </mxCell>
        <mxCell id="PRT0lcISxdgQb2YjQAxH-10" value="Cons" style="swimlane;fontStyle=0;childLayout=stackLayout;horizontal=1;startSize=30;horizontalStack=0;resizeParent=1;resizeParentMax=0;resizeLast=0;collapsible=1;marginBottom=0;fontFamily=Comfortaa;fontSource=https%3A%2F%2Ffonts.googleapis.com%2Fcss%3Ffamily%3DComfortaa;fontSize=20;fontColor=#000000;fillColor=#1DAD9B;opacity=70;" vertex="1" parent="PRT0lcISxdgQb2YjQAxH-9">
          <mxGeometry x="589.2857142857143" width="910.7142857142859" height="165" as="geometry" />
        </mxCell>
        <mxCell id="PRT0lcISxdgQb2YjQAxH-11" value="Abstract away the Git inner working, maybe you can&#39;t fully understand what is going on" style="text;strokeColor=none;fillColor=none;align=left;verticalAlign=middle;spacingLeft=4;spacingRight=4;overflow=hidden;points=[[0,0.5],[1,0.5]];portConstraint=eastwest;rotatable=0;fontFamily=Comfortaa;fontSource=https%3A%2F%2Ffonts.googleapis.com%2Fcss%3Ffamily%3DComfortaa;fontSize=20;fontColor=#000000;opacity=70;" vertex="1" parent="PRT0lcISxdgQb2YjQAxH-10">
          <mxGeometry y="30" width="910.7142857142859" height="45" as="geometry" />
        </mxCell>
        <mxCell id="PRT0lcISxdgQb2YjQAxH-12" value="Depend on particular software" style="text;strokeColor=none;fillColor=none;align=left;verticalAlign=middle;spacingLeft=4;spacingRight=4;overflow=hidden;points=[[0,0.5],[1,0.5]];portConstraint=eastwest;rotatable=0;fontFamily=Comfortaa;fontSource=https%3A%2F%2Ffonts.googleapis.com%2Fcss%3Ffamily%3DComfortaa;fontSize=20;fontColor=#000000;opacity=70;" vertex="1" parent="PRT0lcISxdgQb2YjQAxH-10">
          <mxGeometry y="75" width="910.7142857142859" height="45" as="geometry" />
        </mxCell>
        <mxCell id="PRT0lcISxdgQb2YjQAxH-13" value="Something hard to fix without command line" style="text;strokeColor=none;fillColor=none;align=left;verticalAlign=middle;spacingLeft=4;spacingRight=4;overflow=hidden;points=[[0,0.5],[1,0.5]];portConstraint=eastwest;rotatable=0;fontFamily=Comfortaa;fontSource=https%3A%2F%2Ffonts.googleapis.com%2Fcss%3Ffamily%3DComfortaa;fontSize=20;fontColor=#000000;opacity=70;" vertex="1" parent="PRT0lcISxdgQb2YjQAxH-10">
          <mxGeometry y="120" width="910.7142857142859" height="45" as="geometry" />
        </mxCell>
        <mxCell id="PRT0lcISxdgQb2YjQAxH-14" value="Pros" style="swimlane;fontStyle=0;childLayout=stackLayout;horizontal=1;startSize=30;horizontalStack=0;resizeParent=1;resizeParentMax=0;resizeLast=0;collapsible=1;marginBottom=0;fontFamily=Comfortaa;fontSource=https%3A%2F%2Ffonts.googleapis.com%2Fcss%3Ffamily%3DComfortaa;fontSize=20;fontColor=#000000;fillColor=#1DAD9B;opacity=70;" vertex="1" parent="PRT0lcISxdgQb2YjQAxH-9">
          <mxGeometry width="589.2857142857143" height="165" as="geometry" />
        </mxCell>
        <mxCell id="PRT0lcISxdgQb2YjQAxH-15" value="Friendlier " style="text;strokeColor=none;fillColor=none;align=left;verticalAlign=middle;spacingLeft=4;spacingRight=4;overflow=hidden;points=[[0,0.5],[1,0.5]];portConstraint=eastwest;rotatable=0;fontFamily=Comfortaa;fontSource=https%3A%2F%2Ffonts.googleapis.com%2Fcss%3Ffamily%3DComfortaa;fontSize=20;fontColor=#000000;opacity=70;" vertex="1" parent="PRT0lcISxdgQb2YjQAxH-14">
          <mxGeometry y="30" width="589.2857142857143" height="45" as="geometry" />
        </mxCell>
        <mxCell id="PRT0lcISxdgQb2YjQAxH-16" style="text;strokeColor=none;fillColor=none;align=left;verticalAlign=middle;spacingLeft=4;spacingRight=4;overflow=hidden;points=[[0,0.5],[1,0.5]];portConstraint=eastwest;rotatable=0;fontFamily=Comfortaa;fontSource=https%3A%2F%2Ffonts.googleapis.com%2Fcss%3Ffamily%3DComfortaa;fontSize=20;fontColor=#000000;opacity=70;" vertex="1" parent="PRT0lcISxdgQb2YjQAxH-14">
          <mxGeometry y="75" width="589.2857142857143" height="45" as="geometry" />
        </mxCell>
        <mxCell id="PRT0lcISxdgQb2YjQAxH-17" style="text;strokeColor=none;fillColor=none;align=left;verticalAlign=middle;spacingLeft=4;spacingRight=4;overflow=hidden;points=[[0,0.5],[1,0.5]];portConstraint=eastwest;rotatable=0;fontFamily=Comfortaa;fontSource=https%3A%2F%2Ffonts.googleapis.com%2Fcss%3Ffamily%3DComfortaa;fontSize=20;fontColor=#000000;opacity=70;" vertex="1" parent="PRT0lcISxdgQb2YjQAxH-14">
          <mxGeometry y="120" width="589.2857142857143" height="45" as="geometry" />
        </mxCell>
        <mxCell id="PRT0lcISxdgQb2YjQAxH-18" value="Pros &amp;amp; Cons of GUIs" style="rounded=0;whiteSpace=wrap;html=1;fontFamily=Comfortaa;fontSource=https%3A%2F%2Ffonts.googleapis.com%2Fcss%3Ffamily%3DComfortaa;fontSize=20;fontColor=#000000;fillColor=#FFFFFF;opacity=40;" vertex="1" parent="PRT0lcISxdgQb2YjQAxH-7">
          <mxGeometry width="1500" height="30" as="geometry" />
        </mxCell>
        <mxCell id="PRT0lcISxdgQb2YjQAxH-19" value="" style="group;fontFamily=Comfortaa;fontSource=https%3A%2F%2Ffonts.googleapis.com%2Fcss%3Ffamily%3DComfortaa;" vertex="1" connectable="0" parent="nFPy5RHOB_t1wcvlbLqu-1">
          <mxGeometry x="2050" y="1090" width="1500" height="210" as="geometry" />
        </mxCell>
        <mxCell id="PRT0lcISxdgQb2YjQAxH-20" value="" style="group;fontFamily=Comfortaa;fontSource=https%3A%2F%2Ffonts.googleapis.com%2Fcss%3Ffamily%3DComfortaa;" vertex="1" connectable="0" parent="PRT0lcISxdgQb2YjQAxH-19">
          <mxGeometry y="30" width="1500" height="180" as="geometry" />
        </mxCell>
        <mxCell id="PRT0lcISxdgQb2YjQAxH-21" value="" style="group;fontFamily=Comfortaa;fontSource=https%3A%2F%2Ffonts.googleapis.com%2Fcss%3Ffamily%3DComfortaa;" vertex="1" connectable="0" parent="PRT0lcISxdgQb2YjQAxH-20">
          <mxGeometry width="1500" height="165" as="geometry" />
        </mxCell>
        <mxCell id="PRT0lcISxdgQb2YjQAxH-22" value="Cons" style="swimlane;fontStyle=0;childLayout=stackLayout;horizontal=1;startSize=30;horizontalStack=0;resizeParent=1;resizeParentMax=0;resizeLast=0;collapsible=1;marginBottom=0;fontFamily=Comfortaa;fontSource=https%3A%2F%2Ffonts.googleapis.com%2Fcss%3Ffamily%3DComfortaa;fontSize=20;fontColor=#000000;fillColor=#1DAD9B;opacity=70;" vertex="1" parent="PRT0lcISxdgQb2YjQAxH-21">
          <mxGeometry x="589.2857142857143" width="910.7142857142859" height="165" as="geometry" />
        </mxCell>
        <mxCell id="PRT0lcISxdgQb2YjQAxH-23" value="Not beginner-friendly. You need to learn the Terminal before moving to Git" style="text;strokeColor=none;fillColor=none;align=left;verticalAlign=middle;spacingLeft=4;spacingRight=4;overflow=hidden;points=[[0,0.5],[1,0.5]];portConstraint=eastwest;rotatable=0;fontFamily=Comfortaa;fontSource=https%3A%2F%2Ffonts.googleapis.com%2Fcss%3Ffamily%3DComfortaa;fontSize=20;fontColor=#000000;opacity=70;" vertex="1" parent="PRT0lcISxdgQb2YjQAxH-22">
          <mxGeometry y="30" width="910.7142857142859" height="45" as="geometry" />
        </mxCell>
        <mxCell id="PRT0lcISxdgQb2YjQAxH-24" style="text;strokeColor=none;fillColor=none;align=left;verticalAlign=middle;spacingLeft=4;spacingRight=4;overflow=hidden;points=[[0,0.5],[1,0.5]];portConstraint=eastwest;rotatable=0;fontFamily=Comfortaa;fontSource=https%3A%2F%2Ffonts.googleapis.com%2Fcss%3Ffamily%3DComfortaa;fontSize=20;fontColor=#000000;opacity=70;" vertex="1" parent="PRT0lcISxdgQb2YjQAxH-22">
          <mxGeometry y="75" width="910.7142857142859" height="45" as="geometry" />
        </mxCell>
        <mxCell id="PRT0lcISxdgQb2YjQAxH-25" style="text;strokeColor=none;fillColor=none;align=left;verticalAlign=middle;spacingLeft=4;spacingRight=4;overflow=hidden;points=[[0,0.5],[1,0.5]];portConstraint=eastwest;rotatable=0;fontFamily=Comfortaa;fontSource=https%3A%2F%2Ffonts.googleapis.com%2Fcss%3Ffamily%3DComfortaa;fontSize=20;fontColor=#000000;opacity=70;" vertex="1" parent="PRT0lcISxdgQb2YjQAxH-22">
          <mxGeometry y="120" width="910.7142857142859" height="45" as="geometry" />
        </mxCell>
        <mxCell id="PRT0lcISxdgQb2YjQAxH-26" value="Pros" style="swimlane;fontStyle=0;childLayout=stackLayout;horizontal=1;startSize=30;horizontalStack=0;resizeParent=1;resizeParentMax=0;resizeLast=0;collapsible=1;marginBottom=0;fontFamily=Comfortaa;fontSource=https%3A%2F%2Ffonts.googleapis.com%2Fcss%3Ffamily%3DComfortaa;fontSize=20;fontColor=#000000;fillColor=#1DAD9B;opacity=70;" vertex="1" parent="PRT0lcISxdgQb2YjQAxH-21">
          <mxGeometry width="589.2857142857143" height="165" as="geometry" />
        </mxCell>
        <mxCell id="PRT0lcISxdgQb2YjQAxH-27" value="Always have the same command" style="text;strokeColor=none;fillColor=none;align=left;verticalAlign=middle;spacingLeft=4;spacingRight=4;overflow=hidden;points=[[0,0.5],[1,0.5]];portConstraint=eastwest;rotatable=0;fontFamily=Comfortaa;fontSource=https%3A%2F%2Ffonts.googleapis.com%2Fcss%3Ffamily%3DComfortaa;fontSize=20;fontColor=#000000;opacity=70;" vertex="1" parent="PRT0lcISxdgQb2YjQAxH-26">
          <mxGeometry y="30" width="589.2857142857143" height="45" as="geometry" />
        </mxCell>
        <mxCell id="PRT0lcISxdgQb2YjQAxH-28" value="Command line perform way faster" style="text;strokeColor=none;fillColor=none;align=left;verticalAlign=middle;spacingLeft=4;spacingRight=4;overflow=hidden;points=[[0,0.5],[1,0.5]];portConstraint=eastwest;rotatable=0;fontFamily=Comfortaa;fontSource=https%3A%2F%2Ffonts.googleapis.com%2Fcss%3Ffamily%3DComfortaa;fontSize=20;fontColor=#000000;opacity=70;" vertex="1" parent="PRT0lcISxdgQb2YjQAxH-26">
          <mxGeometry y="75" width="589.2857142857143" height="45" as="geometry" />
        </mxCell>
        <mxCell id="PRT0lcISxdgQb2YjQAxH-29" value="Can you more advanced Git features" style="text;strokeColor=none;fillColor=none;align=left;verticalAlign=middle;spacingLeft=4;spacingRight=4;overflow=hidden;points=[[0,0.5],[1,0.5]];portConstraint=eastwest;rotatable=0;fontFamily=Comfortaa;fontSource=https%3A%2F%2Ffonts.googleapis.com%2Fcss%3Ffamily%3DComfortaa;fontSize=20;fontColor=#000000;opacity=70;" vertex="1" parent="PRT0lcISxdgQb2YjQAxH-26">
          <mxGeometry y="120" width="589.2857142857143" height="45" as="geometry" />
        </mxCell>
        <mxCell id="PRT0lcISxdgQb2YjQAxH-30" value="Pros &amp;amp; Cons of Command Line" style="rounded=0;whiteSpace=wrap;html=1;fontFamily=Comfortaa;fontSource=https%3A%2F%2Ffonts.googleapis.com%2Fcss%3Ffamily%3DComfortaa;fontSize=20;fontColor=#000000;fillColor=#FFFFFF;opacity=40;" vertex="1" parent="PRT0lcISxdgQb2YjQAxH-19">
          <mxGeometry width="1500" height="30" as="geometry" />
        </mxCell>
        <mxCell id="PRT0lcISxdgQb2YjQAxH-31" value="Installation &amp; Setup" style="swimlane;fontFamily=Comfortaa;fontSource=https%3A%2F%2Ffonts.googleapis.com%2Fcss%3Ffamily%3DComfortaa;fontSize=20;fontColor=#000000;fillColor=#1DAD9B;startSize=30;" vertex="1" parent="nFPy5RHOB_t1wcvlbLqu-1">
          <mxGeometry x="1500" y="925" width="370" height="645" as="geometry" />
        </mxCell>
        <mxCell id="PRT0lcISxdgQb2YjQAxH-32" value="Git: Command Line vs. GUIs" style="whiteSpace=wrap;html=1;fontFamily=Comfortaa;fontSource=https%3A%2F%2Ffonts.googleapis.com%2Fcss%3Ffamily%3DComfortaa;fontSize=20;fontColor=#000000;fillColor=#1DAD9B;" vertex="1" parent="PRT0lcISxdgQb2YjQAxH-31">
          <mxGeometry x="30" y="125" width="330" height="60" as="geometry" />
        </mxCell>
        <mxCell id="PRT0lcISxdgQb2YjQAxH-33" value="Installation" style="whiteSpace=wrap;html=1;fontFamily=Comfortaa;fontSource=https%3A%2F%2Ffonts.googleapis.com%2Fcss%3Ffamily%3DComfortaa;fontSize=20;fontColor=#000000;fillColor=#1DAD9B;" vertex="1" parent="PRT0lcISxdgQb2YjQAxH-31">
          <mxGeometry x="20" y="555" width="330" height="60" as="geometry" />
        </mxCell>
        <mxCell id="PRT0lcISxdgQb2YjQAxH-34" style="edgeStyle=orthogonalEdgeStyle;rounded=0;orthogonalLoop=1;jettySize=auto;html=1;entryX=1;entryY=0.5;entryDx=0;entryDy=0;fontFamily=Comfortaa;fontSource=https%3A%2F%2Ffonts.googleapis.com%2Fcss%3Ffamily%3DComfortaa;fontSize=20;fontColor=#000000;" edge="1" parent="nFPy5RHOB_t1wcvlbLqu-1" source="PRT0lcISxdgQb2YjQAxH-32" target="PRT0lcISxdgQb2YjQAxH-0">
          <mxGeometry relative="1" as="geometry" />
        </mxCell>
        <mxCell id="PRT0lcISxdgQb2YjQAxH-35" style="edgeStyle=orthogonalEdgeStyle;rounded=0;orthogonalLoop=1;jettySize=auto;html=1;fontFamily=Comfortaa;fontSource=https%3A%2F%2Ffonts.googleapis.com%2Fcss%3Ffamily%3DComfortaa;fontSize=20;fontColor=#000000;" edge="1" parent="nFPy5RHOB_t1wcvlbLqu-1" source="PRT0lcISxdgQb2YjQAxH-32" target="PRT0lcISxdgQb2YjQAxH-1">
          <mxGeometry relative="1" as="geometry" />
        </mxCell>
        <mxCell id="PRT0lcISxdgQb2YjQAxH-36" style="edgeStyle=orthogonalEdgeStyle;rounded=0;orthogonalLoop=1;jettySize=auto;html=1;entryX=0;entryY=0.5;entryDx=0;entryDy=0;fontFamily=Comfortaa;fontSource=https%3A%2F%2Ffonts.googleapis.com%2Fcss%3Ffamily%3DComfortaa;fontSize=20;fontColor=#000000;" edge="1" parent="nFPy5RHOB_t1wcvlbLqu-1" source="PRT0lcISxdgQb2YjQAxH-32" target="PRT0lcISxdgQb2YjQAxH-18">
          <mxGeometry relative="1" as="geometry" />
        </mxCell>
        <mxCell id="PRT0lcISxdgQb2YjQAxH-37" style="edgeStyle=orthogonalEdgeStyle;rounded=0;orthogonalLoop=1;jettySize=auto;html=1;entryX=0;entryY=0.5;entryDx=0;entryDy=0;fontFamily=Comfortaa;fontSource=https%3A%2F%2Ffonts.googleapis.com%2Fcss%3Ffamily%3DComfortaa;fontSize=20;fontColor=#000000;" edge="1" parent="nFPy5RHOB_t1wcvlbLqu-1" source="PRT0lcISxdgQb2YjQAxH-32" target="PRT0lcISxdgQb2YjQAxH-30">
          <mxGeometry relative="1" as="geometry" />
        </mxCell>
        <mxCell id="PRT0lcISxdgQb2YjQAxH-38" value="Windows" style="swimlane;fontStyle=0;childLayout=stackLayout;horizontal=1;startSize=30;horizontalStack=0;resizeParent=1;resizeParentMax=0;resizeLast=0;collapsible=1;marginBottom=0;fontFamily=Comfortaa;fontSource=https%3A%2F%2Ffonts.googleapis.com%2Fcss%3Ffamily%3DComfortaa;fontSize=20;fontColor=#000000;fillColor=#1DAD9B;" vertex="1" parent="nFPy5RHOB_t1wcvlbLqu-1">
          <mxGeometry x="2040" y="1470" width="350" height="90" as="geometry" />
        </mxCell>
        <mxCell id="PRT0lcISxdgQb2YjQAxH-39" value="1. GitBash" style="text;strokeColor=none;fillColor=none;align=left;verticalAlign=middle;spacingLeft=4;spacingRight=4;overflow=hidden;points=[[0,0.5],[1,0.5]];portConstraint=eastwest;rotatable=0;fontFamily=Comfortaa;fontSource=https%3A%2F%2Ffonts.googleapis.com%2Fcss%3Ffamily%3DComfortaa;fontSize=20;fontColor=#000000;" vertex="1" parent="PRT0lcISxdgQb2YjQAxH-38">
          <mxGeometry y="30" width="350" height="30" as="geometry" />
        </mxCell>
        <mxCell id="PRT0lcISxdgQb2YjQAxH-40" value="2. https://git-scm.com" style="text;strokeColor=none;fillColor=none;align=left;verticalAlign=middle;spacingLeft=4;spacingRight=4;overflow=hidden;points=[[0,0.5],[1,0.5]];portConstraint=eastwest;rotatable=0;fontFamily=Comfortaa;fontSource=https%3A%2F%2Ffonts.googleapis.com%2Fcss%3Ffamily%3DComfortaa;fontSize=20;fontColor=#000000;" vertex="1" parent="PRT0lcISxdgQb2YjQAxH-38">
          <mxGeometry y="60" width="350" height="30" as="geometry" />
        </mxCell>
        <mxCell id="PRT0lcISxdgQb2YjQAxH-41" style="edgeStyle=orthogonalEdgeStyle;rounded=0;orthogonalLoop=1;jettySize=auto;html=1;entryX=0.006;entryY=0.165;entryDx=0;entryDy=0;entryPerimeter=0;fontFamily=Comfortaa;fontSource=https%3A%2F%2Ffonts.googleapis.com%2Fcss%3Ffamily%3DComfortaa;fontSize=20;fontColor=#000000;" edge="1" parent="nFPy5RHOB_t1wcvlbLqu-1" source="PRT0lcISxdgQb2YjQAxH-33" target="PRT0lcISxdgQb2YjQAxH-38">
          <mxGeometry relative="1" as="geometry" />
        </mxCell>
        <mxCell id="PRT0lcISxdgQb2YjQAxH-42" value="Mac/Linux" style="swimlane;fontStyle=0;childLayout=stackLayout;horizontal=1;startSize=30;horizontalStack=0;resizeParent=1;resizeParentMax=0;resizeLast=0;collapsible=1;marginBottom=0;fontFamily=Comfortaa;fontSource=https%3A%2F%2Ffonts.googleapis.com%2Fcss%3Ffamily%3DComfortaa;fontSize=20;fontColor=#000000;fillColor=#1DAD9B;" vertex="1" parent="nFPy5RHOB_t1wcvlbLqu-1">
          <mxGeometry x="2040" y="1620" width="350" height="60" as="geometry" />
        </mxCell>
        <mxCell id="PRT0lcISxdgQb2YjQAxH-43" value="Available" style="text;strokeColor=none;fillColor=none;align=left;verticalAlign=middle;spacingLeft=4;spacingRight=4;overflow=hidden;points=[[0,0.5],[1,0.5]];portConstraint=eastwest;rotatable=0;fontFamily=Comfortaa;fontSource=https%3A%2F%2Ffonts.googleapis.com%2Fcss%3Ffamily%3DComfortaa;fontSize=20;fontColor=#000000;" vertex="1" parent="PRT0lcISxdgQb2YjQAxH-42">
          <mxGeometry y="30" width="350" height="30" as="geometry" />
        </mxCell>
        <mxCell id="PRT0lcISxdgQb2YjQAxH-44" style="edgeStyle=orthogonalEdgeStyle;rounded=0;orthogonalLoop=1;jettySize=auto;html=1;entryX=0;entryY=0.145;entryDx=0;entryDy=0;entryPerimeter=0;fontFamily=Comfortaa;fontSource=https%3A%2F%2Ffonts.googleapis.com%2Fcss%3Ffamily%3DComfortaa;fontSize=20;fontColor=#000000;" edge="1" parent="nFPy5RHOB_t1wcvlbLqu-1" source="PRT0lcISxdgQb2YjQAxH-33" target="PRT0lcISxdgQb2YjQAxH-42">
          <mxGeometry relative="1" as="geometry" />
        </mxCell>
        <mxCell id="PRT0lcISxdgQb2YjQAxH-45" value="Version &amp;gt; 2.23" style="rounded=0;whiteSpace=wrap;html=1;fontFamily=Comfortaa;fontSource=https%3A%2F%2Ffonts.googleapis.com%2Fcss%3Ffamily%3DComfortaa;fontSize=20;" vertex="1" parent="nFPy5RHOB_t1wcvlbLqu-1">
          <mxGeometry x="2040" y="1730" width="170" height="60" as="geometry" />
        </mxCell>
        <mxCell id="PRT0lcISxdgQb2YjQAxH-46" style="edgeStyle=orthogonalEdgeStyle;rounded=0;orthogonalLoop=1;jettySize=auto;html=1;entryX=0;entryY=0.5;entryDx=0;entryDy=0;fontFamily=Comfortaa;fontSource=https%3A%2F%2Ffonts.googleapis.com%2Fcss%3Ffamily%3DComfortaa;" edge="1" parent="nFPy5RHOB_t1wcvlbLqu-1" source="PRT0lcISxdgQb2YjQAxH-33" target="PRT0lcISxdgQb2YjQAxH-45">
          <mxGeometry relative="1" as="geometry" />
        </mxCell>
        <mxCell id="PRT0lcISxdgQb2YjQAxH-47" style="edgeStyle=orthogonalEdgeStyle;rounded=0;orthogonalLoop=1;jettySize=auto;html=1;entryX=0.5;entryY=0;entryDx=0;entryDy=0;fontFamily=Comfortaa;fontSource=https%3A%2F%2Ffonts.googleapis.com%2Fcss%3Ffamily%3DComfortaa;fontSize=20;startArrow=none;" edge="1" parent="nFPy5RHOB_t1wcvlbLqu-1" source="PRT0lcISxdgQb2YjQAxH-53" target="PRT0lcISxdgQb2YjQAxH-52">
          <mxGeometry relative="1" as="geometry" />
        </mxCell>
        <mxCell id="PRT0lcISxdgQb2YjQAxH-57" style="edgeStyle=orthogonalEdgeStyle;rounded=0;orthogonalLoop=1;jettySize=auto;html=1;entryX=0.5;entryY=0;entryDx=0;entryDy=0;fontFamily=Comfortaa;fontSource=https%3A%2F%2Ffonts.googleapis.com%2Fcss%3Ffamily%3DComfortaa;fontSize=20;" edge="1" parent="nFPy5RHOB_t1wcvlbLqu-1" source="PRT0lcISxdgQb2YjQAxH-48" target="PRT0lcISxdgQb2YjQAxH-56">
          <mxGeometry relative="1" as="geometry" />
        </mxCell>
        <mxCell id="PRT0lcISxdgQb2YjQAxH-58" value="Email" style="edgeLabel;html=1;align=center;verticalAlign=middle;resizable=0;points=[];fontSize=20;fontFamily=Comfortaa;" vertex="1" connectable="0" parent="PRT0lcISxdgQb2YjQAxH-57">
          <mxGeometry x="-0.371" y="1" relative="1" as="geometry">
            <mxPoint x="1" as="offset" />
          </mxGeometry>
        </mxCell>
        <mxCell id="PRT0lcISxdgQb2YjQAxH-48" value="Configuring Git" style="rounded=0;whiteSpace=wrap;html=1;fontFamily=Comfortaa;fontSource=https%3A%2F%2Ffonts.googleapis.com%2Fcss%3Ffamily%3DComfortaa;fontSize=20;" vertex="1" parent="nFPy5RHOB_t1wcvlbLqu-1">
          <mxGeometry x="790" y="1590" width="170" height="60" as="geometry" />
        </mxCell>
        <mxCell id="PRT0lcISxdgQb2YjQAxH-49" style="edgeStyle=orthogonalEdgeStyle;rounded=0;orthogonalLoop=1;jettySize=auto;html=1;entryX=0.5;entryY=0;entryDx=0;entryDy=0;fontFamily=Comfortaa;fontSource=https%3A%2F%2Ffonts.googleapis.com%2Fcss%3Ffamily%3DComfortaa;fontSize=20;" edge="1" parent="nFPy5RHOB_t1wcvlbLqu-1" source="PRT0lcISxdgQb2YjQAxH-33" target="PRT0lcISxdgQb2YjQAxH-48">
          <mxGeometry relative="1" as="geometry" />
        </mxCell>
        <mxCell id="PRT0lcISxdgQb2YjQAxH-50" style="edgeStyle=orthogonalEdgeStyle;rounded=0;orthogonalLoop=1;jettySize=auto;html=1;fontFamily=Comfortaa;fontSource=https%3A%2F%2Ffonts.googleapis.com%2Fcss%3Ffamily%3DComfortaa;fontSize=20;" edge="1" parent="nFPy5RHOB_t1wcvlbLqu-1" source="PRT0lcISxdgQb2YjQAxH-52" target="PRT0lcISxdgQb2YjQAxH-55">
          <mxGeometry relative="1" as="geometry" />
        </mxCell>
        <mxCell id="PRT0lcISxdgQb2YjQAxH-51" value="Check if it exist" style="edgeLabel;html=1;align=center;verticalAlign=middle;resizable=0;points=[];fontSize=20;fontFamily=Comfortaa;" vertex="1" connectable="0" parent="PRT0lcISxdgQb2YjQAxH-50">
          <mxGeometry x="-0.1604" y="-1" relative="1" as="geometry">
            <mxPoint as="offset" />
          </mxGeometry>
        </mxCell>
        <mxCell id="PRT0lcISxdgQb2YjQAxH-52" value="git config --global user.name &#39;Your Name&quot;" style="rounded=0;whiteSpace=wrap;html=1;fontFamily=Comfortaa;fontSource=https%3A%2F%2Ffonts.googleapis.com%2Fcss%3Ffamily%3DComfortaa;fontSize=20;" vertex="1" parent="nFPy5RHOB_t1wcvlbLqu-1">
          <mxGeometry x="420" y="1830" width="290" height="60" as="geometry" />
        </mxCell>
        <mxCell id="PRT0lcISxdgQb2YjQAxH-53" value="Name" style="text;html=1;strokeColor=none;fillColor=none;align=center;verticalAlign=middle;whiteSpace=wrap;rounded=0;fontFamily=Comfortaa;fontSource=https%3A%2F%2Ffonts.googleapis.com%2Fcss%3Ffamily%3DComfortaa;fontSize=20;" vertex="1" parent="nFPy5RHOB_t1wcvlbLqu-1">
          <mxGeometry x="535" y="1660" width="60" height="30" as="geometry" />
        </mxCell>
        <mxCell id="PRT0lcISxdgQb2YjQAxH-54" value="" style="edgeStyle=orthogonalEdgeStyle;rounded=0;orthogonalLoop=1;jettySize=auto;html=1;entryX=0.5;entryY=0;entryDx=0;entryDy=0;fontFamily=Comfortaa;fontSource=https%3A%2F%2Ffonts.googleapis.com%2Fcss%3Ffamily%3DComfortaa;fontSize=20;endArrow=none;" edge="1" parent="nFPy5RHOB_t1wcvlbLqu-1" source="PRT0lcISxdgQb2YjQAxH-48" target="PRT0lcISxdgQb2YjQAxH-53">
          <mxGeometry relative="1" as="geometry">
            <mxPoint x="790" y="1620" as="sourcePoint" />
            <mxPoint x="565" y="1830" as="targetPoint" />
          </mxGeometry>
        </mxCell>
        <mxCell id="PRT0lcISxdgQb2YjQAxH-55" value="git config user.name" style="rounded=0;whiteSpace=wrap;html=1;fontFamily=Comfortaa;fontSource=https%3A%2F%2Ffonts.googleapis.com%2Fcss%3Ffamily%3DComfortaa;fontSize=20;" vertex="1" parent="nFPy5RHOB_t1wcvlbLqu-1">
          <mxGeometry x="270" y="2030" width="120" height="60" as="geometry" />
        </mxCell>
        <mxCell id="PRT0lcISxdgQb2YjQAxH-60" style="edgeStyle=orthogonalEdgeStyle;rounded=0;orthogonalLoop=1;jettySize=auto;html=1;fontFamily=Comfortaa;fontSource=https%3A%2F%2Ffonts.googleapis.com%2Fcss%3Ffamily%3DComfortaa;fontSize=20;" edge="1" parent="nFPy5RHOB_t1wcvlbLqu-1" source="PRT0lcISxdgQb2YjQAxH-56" target="PRT0lcISxdgQb2YjQAxH-59">
          <mxGeometry relative="1" as="geometry" />
        </mxCell>
        <mxCell id="PRT0lcISxdgQb2YjQAxH-61" value="Check if it exist" style="edgeLabel;html=1;align=center;verticalAlign=middle;resizable=0;points=[];fontSize=20;fontFamily=Comfortaa;" vertex="1" connectable="0" parent="PRT0lcISxdgQb2YjQAxH-60">
          <mxGeometry x="-0.2748" y="2" relative="1" as="geometry">
            <mxPoint as="offset" />
          </mxGeometry>
        </mxCell>
        <mxCell id="PRT0lcISxdgQb2YjQAxH-56" value="git config --global user.email &amp;lt;Your Email&amp;gt;" style="rounded=0;whiteSpace=wrap;html=1;fontFamily=Comfortaa;fontSource=https%3A%2F%2Ffonts.googleapis.com%2Fcss%3Ffamily%3DComfortaa;fontSize=20;" vertex="1" parent="nFPy5RHOB_t1wcvlbLqu-1">
          <mxGeometry x="960" y="1830" width="290" height="60" as="geometry" />
        </mxCell>
        <mxCell id="PRT0lcISxdgQb2YjQAxH-59" value="git config user.email" style="rounded=0;whiteSpace=wrap;html=1;fontFamily=Comfortaa;fontSource=https%3A%2F%2Ffonts.googleapis.com%2Fcss%3Ffamily%3DComfortaa;fontSize=20;" vertex="1" parent="nFPy5RHOB_t1wcvlbLqu-1">
          <mxGeometry x="1045" y="2020" width="120" height="60" as="geometry" />
        </mxCell>
        <mxCell id="PRT0lcISxdgQb2YjQAxH-62" value="Terminal Crash Course" style="rounded=0;whiteSpace=wrap;html=1;fontFamily=Comfortaa;fontSource=https%3A%2F%2Ffonts.googleapis.com%2Fcss%3Ffamily%3DComfortaa;fontSize=20;" vertex="1" parent="nFPy5RHOB_t1wcvlbLqu-1">
          <mxGeometry x="1300" y="1680" width="170" height="60" as="geometry" />
        </mxCell>
        <mxCell id="PRT0lcISxdgQb2YjQAxH-63" style="edgeStyle=orthogonalEdgeStyle;rounded=0;orthogonalLoop=1;jettySize=auto;html=1;fontFamily=Comfortaa;fontSource=https%3A%2F%2Ffonts.googleapis.com%2Fcss%3Ffamily%3DComfortaa;fontSize=20;" edge="1" parent="nFPy5RHOB_t1wcvlbLqu-1" source="PRT0lcISxdgQb2YjQAxH-33" target="PRT0lcISxdgQb2YjQAxH-62">
          <mxGeometry relative="1" as="geometry" />
        </mxCell>
      </root>
    </mxGraphModel>
  </diagram>
  <diagram id="EDYWFIKQl47onlo5piU0" name="Git Basics">
    <mxGraphModel dx="2808" dy="635" grid="1" gridSize="10" guides="1" tooltips="1" connect="1" arrows="1" fold="1" page="1" pageScale="1" pageWidth="1700" pageHeight="1100" math="0" shadow="0">
      <root>
        <mxCell id="Sn7UqgBkAx_gnPdhFFUn-0" />
        <mxCell id="Sn7UqgBkAx_gnPdhFFUn-1" parent="Sn7UqgBkAx_gnPdhFFUn-0" />
        <mxCell id="Sn7UqgBkAx_gnPdhFFUn-2" value="Git Basics" style="swimlane;fontFamily=Comfortaa;fontSource=https%3A%2F%2Ffonts.googleapis.com%2Fcss%3Ffamily%3DComfortaa;fontSize=20;fillColor=#1DAD9B;" vertex="1" parent="Sn7UqgBkAx_gnPdhFFUn-1">
          <mxGeometry x="480" y="250" width="250" height="200" as="geometry" />
        </mxCell>
        <mxCell id="Sn7UqgBkAx_gnPdhFFUn-3" value="&amp;nbsp;Git Repository" style="whiteSpace=wrap;html=1;fontFamily=Comfortaa;fontSource=https%3A%2F%2Ffonts.googleapis.com%2Fcss%3Ffamily%3DComfortaa;fontSize=20;" vertex="1" parent="Sn7UqgBkAx_gnPdhFFUn-2">
          <mxGeometry x="15" y="30" width="225" height="30" as="geometry" />
        </mxCell>
        <mxCell id="HYTH6Y2d-zfsrE_nzmK1-0" value="Committing Workflow" style="whiteSpace=wrap;html=1;fontFamily=Comfortaa;fontSource=https%3A%2F%2Ffonts.googleapis.com%2Fcss%3Ffamily%3DComfortaa;fontSize=20;" vertex="1" parent="Sn7UqgBkAx_gnPdhFFUn-2">
          <mxGeometry x="15" y="70" width="225" height="30" as="geometry" />
        </mxCell>
        <mxCell id="U9V_GGp49IJH8gVTDTVB-1" value="git status" style="rounded=0;whiteSpace=wrap;html=1;fontFamily=Comfortaa;fontSource=https%3A%2F%2Ffonts.googleapis.com%2Fcss%3Ffamily%3DComfortaa;fontSize=20;" vertex="1" parent="Sn7UqgBkAx_gnPdhFFUn-1">
          <mxGeometry y="370" width="110" height="30" as="geometry" />
        </mxCell>
        <mxCell id="U9V_GGp49IJH8gVTDTVB-2" style="edgeStyle=orthogonalEdgeStyle;rounded=0;orthogonalLoop=1;jettySize=auto;html=1;entryX=0.5;entryY=0;entryDx=0;entryDy=0;fontFamily=Comfortaa;fontSource=https%3A%2F%2Ffonts.googleapis.com%2Fcss%3Ffamily%3DComfortaa;fontSize=20;" edge="1" parent="Sn7UqgBkAx_gnPdhFFUn-1" source="Sn7UqgBkAx_gnPdhFFUn-3" target="U9V_GGp49IJH8gVTDTVB-1">
          <mxGeometry relative="1" as="geometry" />
        </mxCell>
        <mxCell id="U9V_GGp49IJH8gVTDTVB-3" value="Check if we in a repo or not" style="edgeLabel;html=1;align=center;verticalAlign=middle;resizable=0;points=[];fontSize=20;fontFamily=Comfortaa;" vertex="1" connectable="0" parent="U9V_GGp49IJH8gVTDTVB-2">
          <mxGeometry x="0.1524" y="-4" relative="1" as="geometry">
            <mxPoint as="offset" />
          </mxGeometry>
        </mxCell>
        <mxCell id="Jz1g8dXBN6f66h1OwYjd-1" style="edgeStyle=orthogonalEdgeStyle;rounded=0;orthogonalLoop=1;jettySize=auto;html=1;fontFamily=Comfortaa;fontSource=https%3A%2F%2Ffonts.googleapis.com%2Fcss%3Ffamily%3DComfortaa;fontSize=20;" edge="1" parent="Sn7UqgBkAx_gnPdhFFUn-1" source="U9V_GGp49IJH8gVTDTVB-4">
          <mxGeometry relative="1" as="geometry">
            <mxPoint x="205" y="660" as="targetPoint" />
          </mxGeometry>
        </mxCell>
        <mxCell id="Jz1g8dXBN6f66h1OwYjd-3" value="Create" style="edgeLabel;html=1;align=center;verticalAlign=middle;resizable=0;points=[];fontSize=20;fontFamily=Comfortaa;" vertex="1" connectable="0" parent="Jz1g8dXBN6f66h1OwYjd-1">
          <mxGeometry x="-0.2258" y="3" relative="1" as="geometry">
            <mxPoint as="offset" />
          </mxGeometry>
        </mxCell>
        <mxCell id="z9FLUq8Y38waNNybUuLY-3" style="edgeStyle=orthogonalEdgeStyle;rounded=0;orthogonalLoop=1;jettySize=auto;html=1;entryX=0.875;entryY=0.5;entryDx=0;entryDy=0;entryPerimeter=0;fontFamily=Comfortaa;fontSource=https%3A%2F%2Ffonts.googleapis.com%2Fcss%3Ffamily%3DComfortaa;fontSize=20;" edge="1" parent="Sn7UqgBkAx_gnPdhFFUn-1" source="U9V_GGp49IJH8gVTDTVB-4" target="z9FLUq8Y38waNNybUuLY-0">
          <mxGeometry relative="1" as="geometry" />
        </mxCell>
        <mxCell id="U9V_GGp49IJH8gVTDTVB-4" value="git init" style="rounded=0;whiteSpace=wrap;html=1;fontFamily=Comfortaa;fontSource=https%3A%2F%2Ffonts.googleapis.com%2Fcss%3Ffamily%3DComfortaa;fontSize=20;" vertex="1" parent="Sn7UqgBkAx_gnPdhFFUn-1">
          <mxGeometry x="150" y="540" width="110" height="30" as="geometry" />
        </mxCell>
        <mxCell id="U9V_GGp49IJH8gVTDTVB-5" style="edgeStyle=orthogonalEdgeStyle;rounded=0;orthogonalLoop=1;jettySize=auto;html=1;entryX=1;entryY=0.5;entryDx=0;entryDy=0;fontFamily=Comfortaa;fontSource=https%3A%2F%2Ffonts.googleapis.com%2Fcss%3Ffamily%3DComfortaa;fontSize=20;" edge="1" parent="Sn7UqgBkAx_gnPdhFFUn-1" source="Sn7UqgBkAx_gnPdhFFUn-3" target="U9V_GGp49IJH8gVTDTVB-4">
          <mxGeometry relative="1" as="geometry" />
        </mxCell>
        <mxCell id="U9V_GGp49IJH8gVTDTVB-6" value="Initialize new repo&amp;nbsp;" style="edgeLabel;html=1;align=center;verticalAlign=middle;resizable=0;points=[];fontSize=20;fontFamily=Comfortaa;" vertex="1" connectable="0" parent="U9V_GGp49IJH8gVTDTVB-5">
          <mxGeometry x="0.0792" y="-1" relative="1" as="geometry">
            <mxPoint as="offset" />
          </mxGeometry>
        </mxCell>
        <mxCell id="Jz1g8dXBN6f66h1OwYjd-2" value=".git hidden directory" style="rounded=0;whiteSpace=wrap;html=1;fontFamily=Comfortaa;fontSource=https%3A%2F%2Ffonts.googleapis.com%2Fcss%3Ffamily%3DComfortaa;fontSize=20;" vertex="1" parent="Sn7UqgBkAx_gnPdhFFUn-1">
          <mxGeometry x="145" y="660" width="120" height="60" as="geometry" />
        </mxCell>
        <mxCell id="z9FLUq8Y38waNNybUuLY-0" value="Don&#39;t init a git repo inside a git repo" style="ellipse;shape=cloud;whiteSpace=wrap;html=1;fontFamily=Comfortaa;fontSource=https%3A%2F%2Ffonts.googleapis.com%2Fcss%3Ffamily%3DComfortaa;fontSize=20;" vertex="1" parent="Sn7UqgBkAx_gnPdhFFUn-1">
          <mxGeometry x="-180" y="490" width="210" height="130" as="geometry" />
        </mxCell>
        <mxCell id="j1LspauI3CI5sK8hUUTj-5" style="edgeStyle=orthogonalEdgeStyle;rounded=0;orthogonalLoop=1;jettySize=auto;html=1;entryX=0;entryY=0.5;entryDx=0;entryDy=0;fontFamily=Comfortaa;fontSource=https%3A%2F%2Ffonts.googleapis.com%2Fcss%3Ffamily%3DComfortaa;fontSize=20;startArrow=none;" edge="1" parent="Sn7UqgBkAx_gnPdhFFUn-1" source="jbteNgVQtWkn9odzqzkl-30" target="j1LspauI3CI5sK8hUUTj-3">
          <mxGeometry relative="1" as="geometry" />
        </mxCell>
        <mxCell id="jbteNgVQtWkn9odzqzkl-1" style="edgeStyle=orthogonalEdgeStyle;rounded=0;orthogonalLoop=1;jettySize=auto;html=1;entryX=1;entryY=0;entryDx=0;entryDy=0;fontFamily=Comfortaa;fontSource=https%3A%2F%2Ffonts.googleapis.com%2Fcss%3Ffamily%3DComfortaa;fontSize=20;" edge="1" parent="Sn7UqgBkAx_gnPdhFFUn-1" source="j1LspauI3CI5sK8hUUTj-1" target="jbteNgVQtWkn9odzqzkl-0">
          <mxGeometry relative="1" as="geometry" />
        </mxCell>
        <mxCell id="jbteNgVQtWkn9odzqzkl-2" value="git status" style="edgeLabel;html=1;align=center;verticalAlign=middle;resizable=0;points=[];fontSize=20;fontFamily=Comfortaa;" vertex="1" connectable="0" parent="jbteNgVQtWkn9odzqzkl-1">
          <mxGeometry x="-0.1601" relative="1" as="geometry">
            <mxPoint as="offset" />
          </mxGeometry>
        </mxCell>
        <mxCell id="jbteNgVQtWkn9odzqzkl-19" value="change" style="edgeLabel;html=1;align=center;verticalAlign=middle;resizable=0;points=[];fontSize=20;fontFamily=Comfortaa;" vertex="1" connectable="0" parent="jbteNgVQtWkn9odzqzkl-1">
          <mxGeometry x="-0.794" y="2" relative="1" as="geometry">
            <mxPoint as="offset" />
          </mxGeometry>
        </mxCell>
        <mxCell id="j1LspauI3CI5sK8hUUTj-1" value="Working Directory" style="rounded=0;whiteSpace=wrap;html=1;fontFamily=Comfortaa;fontSource=https%3A%2F%2Ffonts.googleapis.com%2Fcss%3Ffamily%3DComfortaa;fontSize=20;" vertex="1" parent="Sn7UqgBkAx_gnPdhFFUn-1">
          <mxGeometry x="810" y="305" width="120" height="60" as="geometry" />
        </mxCell>
        <mxCell id="j1LspauI3CI5sK8hUUTj-2" style="edgeStyle=orthogonalEdgeStyle;rounded=0;orthogonalLoop=1;jettySize=auto;html=1;entryX=0;entryY=0.5;entryDx=0;entryDy=0;fontFamily=Comfortaa;fontSource=https%3A%2F%2Ffonts.googleapis.com%2Fcss%3Ffamily%3DComfortaa;fontSize=20;" edge="1" parent="Sn7UqgBkAx_gnPdhFFUn-1" source="HYTH6Y2d-zfsrE_nzmK1-0" target="j1LspauI3CI5sK8hUUTj-1">
          <mxGeometry relative="1" as="geometry" />
        </mxCell>
        <mxCell id="jbteNgVQtWkn9odzqzkl-4" style="edgeStyle=orthogonalEdgeStyle;rounded=0;orthogonalLoop=1;jettySize=auto;html=1;fontFamily=Comfortaa;fontSource=https%3A%2F%2Ffonts.googleapis.com%2Fcss%3Ffamily%3DComfortaa;fontSize=20;dashed=1;" edge="1" parent="Sn7UqgBkAx_gnPdhFFUn-1" source="j1LspauI3CI5sK8hUUTj-3" target="jbteNgVQtWkn9odzqzkl-3">
          <mxGeometry relative="1" as="geometry" />
        </mxCell>
        <mxCell id="jbteNgVQtWkn9odzqzkl-11" style="edgeStyle=orthogonalEdgeStyle;rounded=0;orthogonalLoop=1;jettySize=auto;html=1;entryX=0;entryY=0.5;entryDx=0;entryDy=0;fontFamily=Comfortaa;fontSource=https%3A%2F%2Ffonts.googleapis.com%2Fcss%3Ffamily%3DComfortaa;fontSize=20;startArrow=none;" edge="1" parent="Sn7UqgBkAx_gnPdhFFUn-1" source="jbteNgVQtWkn9odzqzkl-9" target="j1LspauI3CI5sK8hUUTj-4">
          <mxGeometry relative="1" as="geometry" />
        </mxCell>
        <mxCell id="j1LspauI3CI5sK8hUUTj-3" value="Staging Area" style="rounded=0;whiteSpace=wrap;html=1;fontFamily=Comfortaa;fontSource=https%3A%2F%2Ffonts.googleapis.com%2Fcss%3Ffamily%3DComfortaa;fontSize=20;" vertex="1" parent="Sn7UqgBkAx_gnPdhFFUn-1">
          <mxGeometry x="1150" y="305" width="120" height="60" as="geometry" />
        </mxCell>
        <mxCell id="jbteNgVQtWkn9odzqzkl-24" style="edgeStyle=orthogonalEdgeStyle;rounded=0;orthogonalLoop=1;jettySize=auto;html=1;fontFamily=Comfortaa;fontSource=https%3A%2F%2Ffonts.googleapis.com%2Fcss%3Ffamily%3DComfortaa;fontSize=20;" edge="1" parent="Sn7UqgBkAx_gnPdhFFUn-1" source="j1LspauI3CI5sK8hUUTj-4" target="jbteNgVQtWkn9odzqzkl-22">
          <mxGeometry relative="1" as="geometry" />
        </mxCell>
        <mxCell id="jbteNgVQtWkn9odzqzkl-26" value="git log" style="edgeLabel;html=1;align=center;verticalAlign=middle;resizable=0;points=[];fontSize=20;fontFamily=Comfortaa;" vertex="1" connectable="0" parent="jbteNgVQtWkn9odzqzkl-24">
          <mxGeometry x="-0.1265" y="-1" relative="1" as="geometry">
            <mxPoint as="offset" />
          </mxGeometry>
        </mxCell>
        <mxCell id="j1LspauI3CI5sK8hUUTj-4" value="Repository" style="rounded=0;whiteSpace=wrap;html=1;fontFamily=Comfortaa;fontSource=https%3A%2F%2Ffonts.googleapis.com%2Fcss%3Ffamily%3DComfortaa;fontSize=20;" vertex="1" parent="Sn7UqgBkAx_gnPdhFFUn-1">
          <mxGeometry x="1720" y="305" width="120" height="60" as="geometry" />
        </mxCell>
        <mxCell id="jbteNgVQtWkn9odzqzkl-3" value="Grouping Commit" style="ellipse;shape=cloud;whiteSpace=wrap;html=1;fontFamily=Comfortaa;fontSource=https%3A%2F%2Ffonts.googleapis.com%2Fcss%3Ffamily%3DComfortaa;fontSize=20;" vertex="1" parent="Sn7UqgBkAx_gnPdhFFUn-1">
          <mxGeometry x="1130" y="130" width="160" height="90" as="geometry" />
        </mxCell>
        <mxCell id="jbteNgVQtWkn9odzqzkl-7" value="git commit -m &#39;your commit name&#39;" style="rounded=1;whiteSpace=wrap;html=1;fontFamily=Comfortaa;fontSource=https%3A%2F%2Ffonts.googleapis.com%2Fcss%3Ffamily%3DComfortaa;fontSize=20;" vertex="1" parent="Sn7UqgBkAx_gnPdhFFUn-1">
          <mxGeometry x="1380" y="140" width="380" height="40" as="geometry" />
        </mxCell>
        <mxCell id="jbteNgVQtWkn9odzqzkl-13" style="edgeStyle=orthogonalEdgeStyle;rounded=0;orthogonalLoop=1;jettySize=auto;html=1;fontFamily=Comfortaa;fontSource=https%3A%2F%2Ffonts.googleapis.com%2Fcss%3Ffamily%3DComfortaa;fontSize=20;" edge="1" parent="Sn7UqgBkAx_gnPdhFFUn-1" source="jbteNgVQtWkn9odzqzkl-9" target="jbteNgVQtWkn9odzqzkl-7">
          <mxGeometry relative="1" as="geometry" />
        </mxCell>
        <mxCell id="jbteNgVQtWkn9odzqzkl-9" value="git commit" style="ellipse;whiteSpace=wrap;html=1;aspect=fixed;fontFamily=Comfortaa;fontSource=https%3A%2F%2Ffonts.googleapis.com%2Fcss%3Ffamily%3DComfortaa;fontSize=20;" vertex="1" parent="Sn7UqgBkAx_gnPdhFFUn-1">
          <mxGeometry x="1330" y="295" width="80" height="80" as="geometry" />
        </mxCell>
        <mxCell id="jbteNgVQtWkn9odzqzkl-12" value="" style="edgeStyle=orthogonalEdgeStyle;rounded=0;orthogonalLoop=1;jettySize=auto;html=1;entryX=0;entryY=0.5;entryDx=0;entryDy=0;fontFamily=Comfortaa;fontSource=https%3A%2F%2Ffonts.googleapis.com%2Fcss%3Ffamily%3DComfortaa;fontSize=20;endArrow=none;" edge="1" parent="Sn7UqgBkAx_gnPdhFFUn-1" source="j1LspauI3CI5sK8hUUTj-3" target="jbteNgVQtWkn9odzqzkl-9">
          <mxGeometry relative="1" as="geometry">
            <mxPoint x="1230" y="335" as="sourcePoint" />
            <mxPoint x="1460" y="330" as="targetPoint" />
          </mxGeometry>
        </mxCell>
        <mxCell id="jbteNgVQtWkn9odzqzkl-22" value="Log of commits" style="rounded=0;whiteSpace=wrap;html=1;fontFamily=Comfortaa;fontSource=https%3A%2F%2Ffonts.googleapis.com%2Fcss%3Ffamily%3DComfortaa;fontSize=20;" vertex="1" parent="Sn7UqgBkAx_gnPdhFFUn-1">
          <mxGeometry x="1720" y="560" width="120" height="60" as="geometry" />
        </mxCell>
        <mxCell id="jbteNgVQtWkn9odzqzkl-28" value="" style="group" vertex="1" connectable="0" parent="Sn7UqgBkAx_gnPdhFFUn-1">
          <mxGeometry x="750" y="570" width="240" height="60" as="geometry" />
        </mxCell>
        <mxCell id="jbteNgVQtWkn9odzqzkl-0" value="Untracked files" style="rounded=0;whiteSpace=wrap;html=1;fontFamily=Comfortaa;fontSource=https%3A%2F%2Ffonts.googleapis.com%2Fcss%3Ffamily%3DComfortaa;fontSize=20;" vertex="1" parent="jbteNgVQtWkn9odzqzkl-28">
          <mxGeometry width="120" height="60" as="geometry" />
        </mxCell>
        <mxCell id="jbteNgVQtWkn9odzqzkl-27" value="Modified files" style="rounded=0;whiteSpace=wrap;html=1;fontFamily=Comfortaa;fontSource=https%3A%2F%2Ffonts.googleapis.com%2Fcss%3Ffamily%3DComfortaa;fontSize=20;" vertex="1" parent="jbteNgVQtWkn9odzqzkl-28">
          <mxGeometry x="120" width="120" height="60" as="geometry" />
        </mxCell>
        <mxCell id="jbteNgVQtWkn9odzqzkl-33" style="edgeStyle=orthogonalEdgeStyle;rounded=0;orthogonalLoop=1;jettySize=auto;html=1;entryX=0.5;entryY=0;entryDx=0;entryDy=0;fontFamily=Comfortaa;fontSource=https%3A%2F%2Ffonts.googleapis.com%2Fcss%3Ffamily%3DComfortaa;fontSize=20;" edge="1" parent="Sn7UqgBkAx_gnPdhFFUn-1" source="jbteNgVQtWkn9odzqzkl-30" target="jbteNgVQtWkn9odzqzkl-32">
          <mxGeometry relative="1" as="geometry" />
        </mxCell>
        <mxCell id="jbteNgVQtWkn9odzqzkl-30" value="git add" style="ellipse;whiteSpace=wrap;html=1;aspect=fixed;fontFamily=Comfortaa;fontSource=https%3A%2F%2Ffonts.googleapis.com%2Fcss%3Ffamily%3DComfortaa;fontSize=20;" vertex="1" parent="Sn7UqgBkAx_gnPdhFFUn-1">
          <mxGeometry x="1000" y="295" width="80" height="80" as="geometry" />
        </mxCell>
        <mxCell id="jbteNgVQtWkn9odzqzkl-31" value="" style="edgeStyle=orthogonalEdgeStyle;rounded=0;orthogonalLoop=1;jettySize=auto;html=1;entryX=0;entryY=0.5;entryDx=0;entryDy=0;fontFamily=Comfortaa;fontSource=https%3A%2F%2Ffonts.googleapis.com%2Fcss%3Ffamily%3DComfortaa;fontSize=20;endArrow=none;" edge="1" parent="Sn7UqgBkAx_gnPdhFFUn-1" source="j1LspauI3CI5sK8hUUTj-1" target="jbteNgVQtWkn9odzqzkl-30">
          <mxGeometry relative="1" as="geometry">
            <mxPoint x="930" y="335" as="sourcePoint" />
            <mxPoint x="1150" y="335" as="targetPoint" />
          </mxGeometry>
        </mxCell>
        <mxCell id="jbteNgVQtWkn9odzqzkl-32" value="git add ." style="rounded=1;whiteSpace=wrap;html=1;fontFamily=Comfortaa;fontSource=https%3A%2F%2Ffonts.googleapis.com%2Fcss%3Ffamily%3DComfortaa;fontSize=20;" vertex="1" parent="Sn7UqgBkAx_gnPdhFFUn-1">
          <mxGeometry x="1040" y="440" width="140" height="40" as="geometry" />
        </mxCell>
      </root>
    </mxGraphModel>
  </diagram>
  <diagram id="K1RVkKYyNS0shEYxKJFH" name="Committing in Detail">
    <mxGraphModel dx="4432" dy="2540" grid="1" gridSize="10" guides="1" tooltips="1" connect="1" arrows="1" fold="1" page="1" pageScale="1" pageWidth="1700" pageHeight="1100" math="0" shadow="0">
      <root>
        <mxCell id="hXbnmgaREJiwARE4SnyY-0" />
        <mxCell id="hXbnmgaREJiwARE4SnyY-1" parent="hXbnmgaREJiwARE4SnyY-0" />
        <mxCell id="B3CwoSvJsdO2pdXdfChn-4" value="Committing in Detail" style="swimlane;fontFamily=Comfortaa;fontSource=https%3A%2F%2Ffonts.googleapis.com%2Fcss%3Ffamily%3DComfortaa;fontSize=20;fillColor=#1DAD9B;" vertex="1" parent="hXbnmgaREJiwARE4SnyY-1">
          <mxGeometry x="500" y="420" width="480" height="260" as="geometry" />
        </mxCell>
        <mxCell id="XbKCcm7wpZsSDjJL6xAJ-5" value="Commits message: Past or Present Tense" style="whiteSpace=wrap;html=1;fontFamily=Comfortaa;fontSource=https%3A%2F%2Ffonts.googleapis.com%2Fcss%3Ffamily%3DComfortaa;fontSize=20;fillColor=#FFFFFF;" vertex="1" parent="B3CwoSvJsdO2pdXdfChn-4">
          <mxGeometry x="20" y="80" width="440" height="40" as="geometry" />
        </mxCell>
        <mxCell id="XbKCcm7wpZsSDjJL6xAJ-2" style="edgeStyle=orthogonalEdgeStyle;rounded=0;orthogonalLoop=1;jettySize=auto;html=1;fontFamily=Comfortaa;fontSource=https%3A%2F%2Ffonts.googleapis.com%2Fcss%3Ffamily%3DComfortaa;fontSize=20;" edge="1" parent="hXbnmgaREJiwARE4SnyY-1" source="XbKCcm7wpZsSDjJL6xAJ-0" target="XbKCcm7wpZsSDjJL6xAJ-1">
          <mxGeometry relative="1" as="geometry" />
        </mxCell>
        <mxCell id="XbKCcm7wpZsSDjJL6xAJ-0" value="Docs" style="shape=note;whiteSpace=wrap;html=1;backgroundOutline=1;darkOpacity=0.05;fontFamily=Comfortaa;fontSource=https%3A%2F%2Ffonts.googleapis.com%2Fcss%3Ffamily%3DComfortaa;fontSize=20;fillColor=#FFFFFF;" vertex="1" parent="hXbnmgaREJiwARE4SnyY-1">
          <mxGeometry x="200" y="460" width="80" height="100" as="geometry" />
        </mxCell>
        <mxCell id="XbKCcm7wpZsSDjJL6xAJ-1" value="https://git-scm.com/docs" style="text;html=1;align=center;verticalAlign=middle;resizable=0;points=[];autosize=1;strokeColor=none;fillColor=none;fontSize=20;fontFamily=Comfortaa;" vertex="1" parent="hXbnmgaREJiwARE4SnyY-1">
          <mxGeometry x="100" y="640" width="280" height="30" as="geometry" />
        </mxCell>
        <mxCell id="XbKCcm7wpZsSDjJL6xAJ-4" value="Atomic Commits" style="whiteSpace=wrap;html=1;fontFamily=Comfortaa;fontSource=https%3A%2F%2Ffonts.googleapis.com%2Fcss%3Ffamily%3DComfortaa;fontSize=20;fillColor=#FFFFFF;" vertex="1" parent="hXbnmgaREJiwARE4SnyY-1">
          <mxGeometry x="520" y="450" width="440" height="40" as="geometry" />
        </mxCell>
      </root>
    </mxGraphModel>
  </diagram>
</mxfile>
